<svg width="390" height="164" viewBox="0 0 390 164" fill="none" xmlns="http://www.w3.org/2000/svg">
<g clip-path="url(#clip0_61_4)">
<path d="M101.039 15.4906L97.4301 15.3191L92.2996 8.08845L90.5567 8.03943L93.7479 15.5642L88.3965 15.4171L87.0709 13.3582L85.7453 13.3092L86.5554 16.1034L85.5735 18.8486L86.8991 18.8976L88.3474 16.9368L93.6988 17.0838L90.0903 24.388L91.8332 24.437L97.381 17.525L100.99 17.5495C100.99 17.5495 102.045 17.5005 102.192 16.5446C102.094 15.5887 101.039 15.4906 101.039 15.4906Z" fill="#0B55A0"/>
<path d="M22.5839 15.5887H20.0063V16.1034H22.5839V15.5887Z" fill="#0B55A0"/>
<path d="M63.8978 15.5887H61.3203V16.1034H63.8978V15.5887Z" fill="#0B55A0"/>
<path d="M58.7428 15.5887H56.1653V16.1034H58.7428V15.5887Z" fill="#0B55A0"/>
<path d="M53.5634 15.5887H50.9858V16.1034H53.5634V15.5887Z" fill="#0B55A0"/>
<path d="M48.4083 15.5887H45.8308V16.1034H48.4083V15.5887Z" fill="#0B55A0"/>
<path d="M79.3876 15.5887H76.8101V16.1034H79.3876V15.5887Z" fill="#0B55A0"/>
<path d="M43.2286 15.5887H40.6511V16.1034H43.2286V15.5887Z" fill="#0B55A0"/>
<path d="M74.2325 15.5887H71.655V16.1034H74.2325V15.5887Z" fill="#0B55A0"/>
<path d="M69.0529 15.5887H66.4753V16.1034H69.0529V15.5887Z" fill="#0B55A0"/>
<path d="M7.09438 15.5887H4.51685V16.1034H7.09438V15.5887Z" fill="#0B55A0"/>
<path d="M38.0736 15.5887H35.4961V16.1034H38.0736V15.5887Z" fill="#0B55A0"/>
<path d="M12.2494 15.5887H9.67188V16.1034H12.2494V15.5887Z" fill="#0B55A0"/>
<path d="M1.9147 15.5887H-0.662842V16.1034H1.9147V15.5887Z" fill="#0B55A0"/>
<path d="M32.9186 15.5887H30.3411V16.1034H32.9186V15.5887Z" fill="#0B55A0"/>
<path d="M27.7389 15.5887H25.1614V16.1034H27.7389V15.5887Z" fill="#0B55A0"/>
<path d="M17.4044 15.5887H14.8269V16.1034H17.4044V15.5887Z" fill="#0B55A0"/>
<path d="M83.2907 15.5887H81.9897V16.1034H83.2907V15.5887Z" fill="#0B55A0"/>
<path d="M-7.14355 112.724H-6.45621H-0.982058V112.748H-0.71203H-0.51565H-0.245623V112.724H5.22853H5.89132V113.41H19.5154L19.319 111.302H-0.51565H-0.71203H-20.5466L-20.7676 113.41H-7.14355V112.724Z" fill="#0B55A0"/>
<path d="M-4.90969 105.052C-4.90969 105.052 -3.01951 105.935 -0.613823 105.935C1.79186 105.935 3.68204 105.052 3.68204 105.052V104.366L4.66396 103.385C4.66396 103.385 2.77377 102.356 0.196252 101.866V101.596C0.196252 101.596 0.0489664 101.13 -0.515633 100.983C-0.540181 100.983 -0.589275 100.983 -0.613823 101.008C-0.638371 101.008 -0.687465 101.008 -0.712013 100.983V101.008C-1.30116 101.155 -1.4239 101.621 -1.4239 101.621V101.89C-4.00142 102.381 -5.8916 103.41 -5.8916 103.41L-4.90969 104.39V105.052ZM1.32545 103.827H2.50375V104.979H1.32545V103.827ZM-0.417443 103.827H0.760856V104.979H-0.417443V103.827ZM-1.9885 103.827H-0.810202V104.979H-1.9885V103.827ZM-3.75594 103.827H-2.57765V104.979H-3.75594V103.827Z" fill="#0B55A0"/>
<path d="M5.2286 120.861V113.435H1.93921V120.861H5.2286ZM3.65755 114.097H4.73765V116.131H3.65755V114.097ZM2.33197 114.097H3.41207V116.131H2.33197V114.097Z" fill="#0B55A0"/>
<path d="M-0.515551 121.254H-0.711929H-23.0259V122.945H-0.711929H-0.515551H21.7739V121.254H-0.515551Z" fill="#0B55A0"/>
<path d="M5.89136 115.935H19.7854L19.5645 113.704H5.89136V115.935Z" fill="#0B55A0"/>
<path d="M5.89136 120.861H20.2764L20.08 118.729H5.89136V120.861Z" fill="#0B55A0"/>
<path d="M5.89136 118.165C6.30867 118.484 6.75053 118.361 6.75053 118.361L6.87327 118.386C6.94691 118.386 7.0451 118.386 7.11875 118.361C7.21694 118.312 7.31513 118.19 7.26604 118.018C7.24149 117.896 7.16784 117.822 7.0942 117.798C7.06965 117.798 7.02056 117.798 6.99601 117.798C6.94691 117.798 6.89781 117.773 6.82417 117.798C6.77508 117.798 6.60324 117.822 6.62779 117.969C6.62779 118.018 6.67688 118.043 6.70143 118.067C6.75053 118.116 6.82417 118.116 6.87327 118.116V118.092C6.87327 118.018 6.92237 117.969 6.99601 117.969C7.02056 117.969 7.02056 117.969 7.04511 117.969C7.0942 117.994 7.11875 118.018 7.11875 118.067C7.11875 118.092 7.11875 118.092 7.11875 118.116C7.11875 118.141 7.0942 118.165 7.06965 118.165C6.97146 118.239 6.79963 118.239 6.72598 118.239H6.70143C6.67688 118.239 6.62779 118.214 6.62779 118.214C6.60324 118.19 6.5787 118.19 6.55415 118.165C6.38232 117.994 6.50505 117.749 6.62779 117.675C6.75053 117.602 6.87327 117.553 7.02056 117.553C7.02056 117.553 7.06965 117.185 7.46242 117.062V117.038C7.46242 117.038 7.46242 117.038 7.48697 117.038C7.48697 117.038 7.48697 117.038 7.51151 117.038V117.062C7.90428 117.209 7.95337 117.553 7.95337 117.553C8.07611 117.577 8.2234 117.602 8.34614 117.675C8.46888 117.773 8.59161 117.994 8.41978 118.165C8.39523 118.19 8.37069 118.214 8.34614 118.214C8.32159 118.214 8.2725 118.239 8.2725 118.239C8.24795 118.239 8.24795 118.239 8.24795 118.239C8.17431 118.239 8.00247 118.239 7.90428 118.165C7.87973 118.141 7.87973 118.141 7.85518 118.116C7.85518 118.092 7.85518 118.092 7.85518 118.067C7.85518 118.018 7.87973 117.994 7.92882 117.969C7.95337 117.969 7.95337 117.969 7.97792 117.969C8.05157 117.969 8.10066 118.018 8.10066 118.092V118.116C8.14976 118.116 8.2234 118.116 8.2725 118.067C8.29705 118.043 8.34614 118.018 8.34614 117.969C8.34614 117.847 8.19886 117.822 8.14976 117.798C8.10066 117.798 8.05157 117.798 7.97792 117.798C7.95337 117.798 7.90428 117.773 7.87973 117.798C7.80609 117.798 7.73244 117.896 7.70789 118.018C7.6588 118.19 7.78154 118.312 7.85518 118.361C7.92883 118.41 8.02702 118.41 8.10066 118.386L8.2234 118.361C8.2234 118.361 8.66526 118.508 9.08257 118.165C9.49989 118.484 9.94175 118.361 9.94175 118.361L10.0645 118.386C10.1381 118.386 10.2363 118.386 10.31 118.361C10.4082 118.312 10.5063 118.19 10.4573 118.018C10.4327 117.896 10.3591 117.822 10.2854 117.798C10.2609 117.798 10.2118 117.798 10.1872 117.798C10.1381 117.798 10.089 117.773 10.0154 117.798C9.96629 117.798 9.79446 117.822 9.81901 117.969C9.81901 118.018 9.8681 118.043 9.89265 118.067C9.94174 118.116 10.0154 118.116 10.0645 118.116V118.092C10.0645 118.018 10.1136 117.969 10.1872 117.969C10.2118 117.969 10.2118 117.969 10.2363 117.969C10.2854 117.994 10.31 118.018 10.31 118.067C10.31 118.092 10.31 118.092 10.31 118.116C10.31 118.141 10.2854 118.165 10.2609 118.165C10.1627 118.239 9.99084 118.239 9.9172 118.239H9.89265C9.8681 118.239 9.81901 118.214 9.81901 118.214C9.79446 118.19 9.76992 118.19 9.74537 118.165C9.57353 117.994 9.69627 117.749 9.81901 117.675C9.94175 117.602 10.0645 117.553 10.2118 117.553C10.2118 117.553 10.2609 117.185 10.6536 117.062V117.038C10.6536 117.038 10.6536 117.038 10.6782 117.038C10.6782 117.038 10.6782 117.038 10.7027 117.038V117.062C11.0955 117.209 11.1446 117.553 11.1446 117.553C11.2673 117.577 11.4146 117.602 11.5374 117.675C11.6601 117.773 11.7828 117.994 11.611 118.165C11.5864 118.19 11.5619 118.214 11.5374 118.214C11.5128 118.214 11.4637 118.239 11.4637 118.239C11.4392 118.239 11.4392 118.239 11.4392 118.239C11.3655 118.239 11.1937 118.239 11.0955 118.165C11.0709 118.141 11.0709 118.141 11.0464 118.116C11.0464 118.092 11.0464 118.092 11.0464 118.067C11.0464 118.018 11.0709 117.994 11.12 117.969C11.1446 117.969 11.1446 117.969 11.1691 117.969C11.2428 117.969 11.2919 118.018 11.2919 118.092V118.116C11.341 118.116 11.4146 118.116 11.4637 118.067C11.4883 118.043 11.5374 118.018 11.5374 117.969C11.5374 117.847 11.3901 117.822 11.341 117.798C11.2919 117.798 11.2428 117.798 11.1691 117.798C11.1446 117.798 11.0955 117.773 11.0709 117.798C10.9973 117.798 10.9237 117.896 10.8991 118.018C10.85 118.19 10.9728 118.312 11.0464 118.361C11.12 118.41 11.2182 118.41 11.2919 118.386L11.4146 118.361C11.4146 118.361 11.8565 118.508 12.2738 118.165C12.6911 118.484 13.133 118.361 13.133 118.361L13.2557 118.386C13.3293 118.386 13.4275 118.386 13.5012 118.361C13.5994 118.312 13.6976 118.19 13.6485 118.018C13.6239 117.896 13.5503 117.822 13.4766 117.798C13.4521 117.798 13.403 117.798 13.3784 117.798C13.3293 117.798 13.2802 117.773 13.2066 117.798C13.1575 117.798 12.9857 117.822 13.0102 117.969C13.0102 118.018 13.0593 118.043 13.0839 118.067C13.133 118.116 13.2066 118.116 13.2557 118.116V118.092C13.2557 118.018 13.3048 117.969 13.3784 117.969C13.403 117.969 13.403 117.969 13.4275 117.969C13.4766 117.994 13.5012 118.018 13.5012 118.067C13.5012 118.092 13.5012 118.092 13.5012 118.116C13.5012 118.141 13.4766 118.165 13.4521 118.165C13.3539 118.239 13.1821 118.239 13.1084 118.239H13.0839C13.0593 118.239 13.0102 118.214 13.0102 118.214C12.9857 118.19 12.9611 118.19 12.9366 118.165C12.7647 117.994 12.8875 117.749 13.0102 117.675C13.133 117.602 13.2557 117.553 13.403 117.553C13.403 117.553 13.4521 117.185 13.8448 117.062V117.038C13.8448 117.038 13.8448 117.038 13.8694 117.038C13.8694 117.038 13.8694 117.038 13.8939 117.038V117.062C14.2867 117.209 14.3358 117.553 14.3358 117.553C14.4585 117.577 14.6058 117.602 14.7286 117.675C14.8513 117.773 14.974 117.994 14.8022 118.165C14.7777 118.19 14.7531 118.214 14.7286 118.214C14.704 118.214 14.6549 118.239 14.6549 118.239C14.6304 118.239 14.6304 118.239 14.6304 118.239C14.5567 118.239 14.3849 118.239 14.2867 118.165C14.2622 118.141 14.2622 118.141 14.2376 118.116C14.2376 118.092 14.2376 118.092 14.2376 118.067C14.2376 118.018 14.2622 117.994 14.3113 117.969C14.3358 117.969 14.3358 117.969 14.3604 117.969C14.434 117.969 14.4831 118.018 14.4831 118.092V118.116C14.5322 118.116 14.6058 118.116 14.6549 118.067C14.6795 118.043 14.7286 118.018 14.7286 117.969C14.7286 117.847 14.5813 117.822 14.5322 117.798C14.4831 117.798 14.434 117.798 14.3604 117.798C14.3358 117.798 14.2867 117.773 14.2622 117.798C14.1885 117.798 14.1149 117.896 14.0903 118.018C14.0412 118.19 14.164 118.312 14.2376 118.361C14.3113 118.41 14.4094 118.41 14.4831 118.386L14.6058 118.361C14.6058 118.361 15.0477 118.508 15.465 118.165C15.8823 118.484 16.3242 118.361 16.3242 118.361L16.4469 118.386C16.5206 118.386 16.6188 118.386 16.6924 118.361C16.7906 118.312 16.8888 118.19 16.8397 118.018C16.8151 117.896 16.7415 117.822 16.6678 117.798C16.6433 117.798 16.5942 117.798 16.5697 117.798C16.5206 117.798 16.4715 117.773 16.3978 117.798C16.3487 117.798 16.1769 117.822 16.2014 117.969C16.2014 118.018 16.2505 118.043 16.2751 118.067C16.3242 118.116 16.3978 118.116 16.4469 118.116V118.092C16.4469 118.018 16.496 117.969 16.5697 117.969C16.5942 117.969 16.5942 117.969 16.6188 117.969C16.6679 117.994 16.6924 118.018 16.6924 118.067C16.6924 118.092 16.6924 118.092 16.6924 118.116C16.6924 118.141 16.6678 118.165 16.6433 118.165C16.5451 118.239 16.3733 118.239 16.2996 118.239H16.2751C16.2505 118.239 16.2014 118.214 16.2014 118.214C16.1769 118.19 16.1523 118.19 16.1278 118.165C15.956 117.994 16.0787 117.749 16.2014 117.675C16.3242 117.602 16.4469 117.553 16.5942 117.553C16.5942 117.553 16.6433 117.185 17.0361 117.062V117.038C17.0361 117.038 17.0361 117.038 17.0606 117.038C17.0606 117.038 17.0606 117.038 17.0852 117.038V117.062C17.4779 117.209 17.527 117.553 17.527 117.553C17.6498 117.577 17.797 117.602 17.9198 117.675C18.0425 117.773 18.1653 117.994 17.9934 118.165C17.9689 118.19 17.9443 118.214 17.9198 118.214C17.8952 118.214 17.8461 118.239 17.8461 118.239C17.8216 118.239 17.8216 118.239 17.8216 118.239C17.748 118.239 17.5761 118.239 17.4779 118.165C17.4534 118.141 17.4534 118.141 17.4288 118.116C17.4288 118.092 17.4288 118.092 17.4288 118.067C17.4288 118.018 17.4534 117.994 17.5025 117.969C17.527 117.969 17.527 117.969 17.5516 117.969C17.6252 117.969 17.6743 118.018 17.6743 118.092V118.116C17.7234 118.116 17.7971 118.116 17.8461 118.067C17.8707 118.043 17.9198 118.018 17.9198 117.969C17.9198 117.847 17.7725 117.822 17.7234 117.798C17.6743 117.798 17.6252 117.798 17.5516 117.798C17.527 117.798 17.4779 117.773 17.4534 117.798C17.3797 117.798 17.3061 117.896 17.2815 118.018C17.2324 118.19 17.3552 118.312 17.4288 118.361C17.5025 118.41 17.6007 118.41 17.6743 118.386L17.797 118.361C17.797 118.361 18.2389 118.508 18.6562 118.165C19.0735 118.484 19.5154 118.361 19.5154 118.361L19.6381 118.386C19.7118 118.386 19.81 118.386 19.8836 118.361C19.9818 118.312 20.08 118.19 20.0309 118.018C20.0064 117.896 19.9327 117.822 19.8591 117.798C19.8345 117.798 19.7854 117.798 19.7609 117.798C19.7118 117.798 19.6627 117.773 19.589 117.798C19.5399 117.798 19.3681 117.822 19.3927 117.969C19.3927 118.018 19.4417 118.043 19.4663 118.067C19.5154 118.116 19.589 118.116 19.6381 118.116V118.092C19.6381 118.018 19.6872 117.969 19.7609 117.969C19.7854 117.969 19.7854 117.969 19.81 117.969C19.8591 117.994 19.8836 118.018 19.8836 118.067C19.8836 118.092 19.8836 118.092 19.8836 118.116C19.8836 118.141 19.8591 118.165 19.8345 118.165C19.7363 118.239 19.5645 118.239 19.4908 118.239H19.4663C19.4417 118.239 19.3927 118.214 19.3927 118.214C19.3681 118.19 19.3436 118.19 19.319 118.165C19.1472 117.994 19.2699 117.749 19.3927 117.675C19.5154 117.602 19.6381 117.553 19.7854 117.553C19.7854 117.553 19.8345 117.209 20.2273 117.062L20.1536 116.229H5.89136V118.165Z" fill="#0B55A0"/>
<path d="M0.417183 106.449C0.441731 106.376 0.49082 106.302 0.564463 106.253C0.589011 106.229 0.638107 106.204 0.687202 106.18C0.417177 106.204 0.147153 106.229 -0.14742 106.253C-0.196516 106.425 -0.221065 106.596 -0.17197 106.817C-0.0737786 107.234 0.147156 107.503 0.392634 107.528C0.490825 107.552 0.61356 107.528 0.711752 107.503C0.883586 107.528 1.07997 107.552 1.25181 107.528C1.42364 107.503 1.93914 107.43 1.93914 106.988C1.93914 106.841 1.79186 106.719 1.71821 106.645C1.54638 106.498 1.35 106.474 1.15362 106.498C1.15362 106.523 1.17816 106.572 1.17816 106.596C1.17816 106.817 1.00633 106.988 0.785399 106.988C0.736304 106.988 0.687207 106.988 0.638111 106.964C0.638111 106.964 0.63811 106.964 0.613562 106.939C0.490823 106.866 0.392634 106.743 0.392634 106.596C0.392634 106.547 0.392635 106.498 0.417183 106.449Z" fill="#0B55A0"/>
<path d="M-0.515553 110.837H18.5335C16.2506 109.562 9.5245 105.984 4.44311 105.15V106.302C3.9767 105.91 3.48574 105.738 3.04388 105.64C2.67566 105.787 2.2338 105.91 1.74285 106.008C1.7674 106.008 1.79194 106.008 1.81649 106.008H1.84104C1.89013 105.959 2.03742 106.057 2.11106 106.082C2.20926 106.131 2.2829 106.18 2.38109 106.278C2.94569 106.866 2.55293 107.626 2.13561 107.92C1.74285 108.189 1.30099 108.312 0.883675 108.361C0.883675 108.361 0.687294 109.538 -0.564644 110.003C-1.81658 109.538 -2.01297 108.361 -2.01297 108.361C-2.43028 108.288 -2.87214 108.189 -3.2649 107.92C-3.68222 107.626 -4.07498 106.841 -3.51038 106.278C-3.43674 106.204 -3.33855 106.131 -3.24036 106.082C-3.19127 106.057 -3.04398 105.959 -2.97033 106.008C-2.97033 106.008 -2.97033 106.008 -2.94578 106.008C-2.92124 106.008 -2.89669 106.008 -2.87214 106.008C-3.3631 105.91 -3.78041 105.787 -4.17317 105.64C-4.61504 105.738 -5.10599 105.91 -5.5724 106.302V105.15C-10.6538 105.984 -17.3799 109.562 -19.6628 110.837H-0.613743H-0.515553Z" fill="#0B55A0"/>
<path d="M308.419 27.0106V24.388H309.204V19.5349C309.204 19.5349 309.916 19.6819 310.211 19.0692V18.5054C310.211 18.5054 309.941 18.1133 309.548 18.2603V18.6525C309.548 18.6525 309.302 19.1427 308.86 18.9466C308.86 18.9466 308.419 18.7996 308.566 18.3829C308.566 18.3829 308.713 18.2113 308.713 18.0397C308.713 18.0152 308.713 17.9907 308.713 17.9417C308.713 17.9417 308.713 17.8682 308.64 17.8191C308.468 17.5005 308.124 17.4515 308.124 17.4515C307.805 17.5495 307.658 17.7211 307.584 17.8436C307.535 17.8927 307.51 17.9662 307.51 17.9662C307.461 18.1623 307.658 18.4074 307.658 18.4074C307.805 18.7996 307.363 18.9711 307.363 18.9711C306.897 19.1672 306.676 18.677 306.676 18.677V18.2848C306.283 18.1378 306.013 18.5299 306.013 18.5299V19.0937C306.308 19.6819 307.019 19.5594 307.019 19.5594V24.2409V24.437H307.731V27.0596H308.419V27.0106Z" fill="#0B55A0"/>
<path d="M299.115 38.1139H301.496V32.9667C301.496 32.9667 302.257 33.1138 302.576 32.4765V31.8637C302.576 31.8637 302.282 31.447 301.84 31.6186V32.0353C301.84 32.0353 301.594 32.55 301.103 32.3539C301.103 32.3539 300.637 32.1824 300.784 31.7657C300.784 31.7657 300.932 31.5941 300.956 31.398C300.956 31.3735 300.956 31.3245 300.956 31.3C300.956 31.3 300.956 31.2264 300.882 31.1529C300.711 30.8098 300.318 30.7607 300.318 30.7607C299.974 30.8588 299.802 31.0549 299.729 31.1774C299.655 31.2264 299.655 31.3 299.655 31.3C299.581 31.5206 299.827 31.7657 299.827 31.7657C299.974 32.1824 299.508 32.3539 299.508 32.3539C299.017 32.5745 298.771 32.0353 298.771 32.0353V31.6186C298.354 31.447 298.035 31.8637 298.035 31.8637V32.4765C298.354 33.1138 299.115 32.9667 299.115 32.9667V37.9913V38.1139Z" fill="#0B55A0"/>
<path d="M295.703 27.893C296.194 27.893 296.586 27.5009 296.636 27.0352C297.937 27.2312 298.918 28.1871 298.918 28.1871C300.931 30.3196 303.509 30.099 303.509 30.099H335.2H335.274H366.965C366.965 30.099 369.518 30.3441 371.556 28.1871C371.556 28.1871 372.537 27.2067 373.838 27.0352C373.888 27.5254 374.28 27.893 374.771 27.893C375.287 27.893 375.729 27.4763 375.729 26.9371C375.729 26.4224 375.311 25.9812 374.771 25.9812C374.673 25.9812 374.575 26.0057 374.477 26.0302V25.9812C374.477 25.9812 372.513 25.9812 370.156 26.9861C370.156 26.9861 368.34 27.6969 365.91 27.6969H335.298H335.225H304.614C302.183 27.6969 300.367 26.9861 300.367 26.9861C298.01 25.9812 296.046 25.9812 296.046 25.9812V26.0302C295.948 26.0057 295.85 25.9812 295.752 25.9812C295.236 25.9812 294.794 26.3979 294.794 26.9371C294.745 27.4763 295.163 27.893 295.703 27.893Z" fill="#0B55A0"/>
<path d="M303.828 14.5347C304.196 14.5347 304.516 14.3142 304.687 13.9955L305.62 14.069L310.505 16.226H335.176H335.249H359.92L364.805 14.069L365.738 13.9955C365.885 14.3142 366.204 14.5347 366.597 14.5347C367.113 14.5347 367.554 14.1181 367.554 13.5788C367.554 13.0641 367.137 12.6229 366.597 12.6229C366.523 12.6229 366.425 12.6474 366.352 12.6719V12.6474C366.352 12.6474 364.805 12.868 363.308 13.2357C363.062 13.2847 362.08 13.5298 360.779 13.7259H350.543C350.15 12.819 349.389 10.5395 350.003 7.35316C350.003 7.35316 350.395 6.39725 352.138 5.29428C352.138 5.29428 352.286 3.55403 351.181 3.30892L350.739 4.09326C350.739 4.09326 350.911 5.22074 345.928 5.83351C345.29 5.90704 336.796 5.83351 336.796 5.83351L336.55 5.14721L335.986 5.00015C335.986 5.00015 335.421 4.33837 336.354 3.82364L336.403 3.30892L335.839 3.03931V2.37752C335.839 2.37752 336.673 2.18144 336.501 0.90689C336.501 0.90689 336.207 0.0735316 335.225 0C335.2 0 335.2 0 335.2 0C335.176 0 335.176 0 335.176 0C334.194 0.0735316 333.899 0.90689 333.899 0.90689C333.752 2.18144 334.562 2.37752 334.562 2.37752V3.0148L333.998 3.28441L334.047 3.79913C334.955 4.31385 334.415 4.97564 334.415 4.97564L333.85 5.14721L333.58 5.85802C333.58 5.85802 325.087 5.93155 324.448 5.85802C319.49 5.24525 319.637 4.11777 319.637 4.11777L319.195 3.33343C318.091 3.57854 318.238 5.31879 318.238 5.31879C319.981 6.42176 320.373 7.37767 320.373 7.37767C320.987 10.5886 320.226 12.868 319.833 13.7504H309.597C308.296 13.5298 307.314 13.3092 307.069 13.2602C305.547 12.8925 304.025 12.6719 304.025 12.6719V12.6965C303.951 12.6719 303.877 12.6474 303.779 12.6474C303.264 12.6474 302.822 13.0641 302.822 13.6033C302.871 14.1181 303.313 14.5347 303.828 14.5347Z" fill="#0B55A0"/>
<path d="M298.379 44.2415H298.796H299.557H300.318H301.079H301.84H302.601H303.362H304.123H304.884H305.645H306.406H307.167H307.928H308.689H309.45H310.211H310.972H311.733H312.494H313.255H314.015H314.776H315.537H316.298H317.059H317.82H318.581H319.342H320.103H320.864H321.625H322.386H323.147H323.908H324.669H325.43H326.191H326.952H327.713H328.474H329.235H329.996H330.757H331.518H332.279H333.04H333.801H334.562H335.053H335.323H335.47H335.74H336.231H336.992H337.753H338.514H339.275H340.036H340.797H341.558H342.319H343.08H343.841H344.602H345.363H346.124H346.885H347.646H348.407H349.168H349.929H350.69H351.451H352.212H352.973H353.734H354.495H355.256H356.017H356.778H357.539H358.3H359.061H359.822H360.583H361.344H362.105H362.866H363.627H364.388H365.149H365.91H366.671H367.432H368.193H368.953H369.714H370.475H371.236H371.997H372.415H372.758H377.594L372.758 41.7415V39.5355V38.8737H371.997H371.236H370.475H369.714H368.953H368.193H367.432H366.671H365.91H365.149H364.388H363.627H362.866H362.105H361.344H360.583H359.822H359.061H358.3H357.539H356.778H356.017H355.256H354.495H353.734H352.973H352.212H351.451H350.69H349.929H349.168H348.407H347.646H346.885H346.124H345.363H344.602H343.841H343.08H342.319H341.558H340.797H340.036H339.275H338.514H337.753H336.992H336.231H335.74H335.47H335.323H335.053H334.562H333.801H333.04H332.279H331.518H330.757H329.996H329.235H328.474H327.713H326.952H326.191H325.43H324.669H323.908H323.147H322.386H321.625H320.864H320.103H319.342H318.581H317.82H317.059H316.298H315.537H314.776H314.015H313.255H312.494H311.733H310.972H310.211H309.45H308.689H307.928H307.167H306.406H305.645H304.884H304.123H303.362H302.601H301.84H301.079H300.318H299.557H298.796H298.035V39.5355V41.7415L293.199 44.2415H298.035H298.379ZM370.868 39.5355H371.629V43.5797H370.868V39.5355ZM369.346 39.5355H370.107V43.5797H369.346V39.5355ZM367.849 39.5355H368.61V43.5797H367.849V39.5355ZM366.327 39.5355H367.088V43.5797H366.327V39.5355ZM364.805 39.5355H365.566V43.5797H364.805V39.5355ZM363.307 39.5355H364.068V43.5797H363.307V39.5355ZM361.786 39.5355H362.547V43.5797H361.786V39.5355ZM360.264 39.5355H361.025V43.5797H360.264V39.5355ZM358.766 39.5355H359.527V43.5797H358.766V39.5355ZM357.244 39.5355H358.005V43.5797H357.244V39.5355ZM355.722 39.5355H356.483V43.5797H355.722V39.5355ZM354.225 39.5355H354.986V43.5797H354.225V39.5355ZM352.703 39.5355H353.464V43.5797H352.703V39.5355ZM351.181 39.5355H351.942V43.5797H351.181V39.5355ZM349.683 39.5355H350.444V43.5797H349.683V39.5355ZM348.162 39.5355H348.922V43.5797H348.162V39.5355ZM346.64 39.5355H347.401V43.5797H346.64V39.5355ZM345.118 39.5355H345.879V43.5797H345.118V39.5355ZM343.62 39.5355H344.381V43.5797H343.62V39.5355ZM342.098 39.5355H342.859V43.5797H342.098V39.5355ZM340.576 39.5355H341.337V43.5797H340.576V39.5355ZM339.079 39.5355H339.84V43.5797H339.079V39.5355ZM337.557 39.5355H338.318V43.5797H337.557V39.5355ZM336.035 39.5355H336.796V43.5797H336.035V39.5355ZM335.274 39.5355V43.5797H335.127V39.5355H335.274ZM333.629 39.5355H334.39V43.5797H333.629V39.5355ZM332.107 39.5355H332.868V43.5797H332.107V39.5355ZM330.585 39.5355H331.346V43.5797H330.585V39.5355ZM329.088 39.5355H329.849V43.5797H329.088V39.5355ZM327.566 39.5355H328.327V43.5797H327.566V39.5355ZM326.044 39.5355H326.805V43.5797H326.044V39.5355ZM324.522 39.5355H325.283V43.5797H324.522V39.5355ZM323.025 39.5355H323.786V43.5797H323.025V39.5355ZM321.503 39.5355H322.264V43.5797H321.503V39.5355ZM319.981 39.5355H320.742V43.5797H319.981V39.5355ZM318.483 39.5355H319.244V43.5797H318.483V39.5355ZM316.961 39.5355H317.722V43.5797H316.961V39.5355ZM315.439 39.5355H316.2V43.5797H315.439V39.5355ZM313.942 39.5355H314.703V43.5797H313.942V39.5355ZM312.42 39.5355H313.181V43.5797H312.42V39.5355ZM310.898 39.5355H311.659V43.5797H310.898V39.5355ZM309.401 39.5355H310.161V43.5797H309.401V39.5355ZM307.879 39.5355H308.64V43.5797H307.879V39.5355ZM306.357 39.5355H307.118V43.5797H306.357V39.5355ZM304.859 39.5355H305.62V43.5797H304.859V39.5355ZM303.337 39.5355H304.098V43.5797H303.337V39.5355ZM301.815 39.5355H302.576V43.5797H301.815V39.5355ZM300.293 39.5355H301.054V43.5797H300.293V39.5355ZM298.796 39.5355H299.557V43.5797H298.796V39.5355Z" fill="#0B55A0"/>
<path d="M323.761 61.8156C324.33 61.8156 324.792 61.3547 324.792 60.7861C324.792 60.2176 324.33 59.7567 323.761 59.7567C323.192 59.7567 322.73 60.2176 322.73 60.7861C322.73 61.3547 323.192 61.8156 323.761 61.8156Z" fill="#0B55A0"/>
<path d="M335.249 61.8156C335.819 61.8156 336.28 61.3547 336.28 60.7861C336.28 60.2176 335.819 59.7567 335.249 59.7567C334.68 59.7567 334.218 60.2176 334.218 60.7861C334.218 61.3547 334.68 61.8156 335.249 61.8156Z" fill="#0B55A0"/>
<path d="M323.147 67.6981H320.447V70.2962H323.147V67.6981Z" fill="#0B55A0"/>
<path d="M323.147 70.909H320.447V73.5071H323.147V70.909Z" fill="#0B55A0"/>
<path d="M323.147 74.1199H320.447V76.718H323.147V74.1199Z" fill="#0B55A0"/>
<path d="M323.147 77.3307H320.447V79.9289H323.147V77.3307Z" fill="#0B55A0"/>
<path d="M323.147 80.5416H320.447V83.1398H323.147V80.5416Z" fill="#0B55A0"/>
<path d="M326.388 67.6981H323.687V70.2962H326.388V67.6981Z" fill="#0B55A0"/>
<path d="M326.388 70.909H323.687V73.5071H326.388V70.909Z" fill="#0B55A0"/>
<path d="M326.388 74.1199H323.687V76.718H326.388V74.1199Z" fill="#0B55A0"/>
<path d="M326.388 77.3307H323.687V79.9289H326.388V77.3307Z" fill="#0B55A0"/>
<path d="M326.388 80.5416H323.687V83.1398H326.388V80.5416Z" fill="#0B55A0"/>
<path d="M329.603 67.6981H326.903V70.2962H329.603V67.6981Z" fill="#0B55A0"/>
<path d="M329.603 70.909H326.903V73.5071H329.603V70.909Z" fill="#0B55A0"/>
<path d="M329.603 74.1199H326.903V76.718H329.603V74.1199Z" fill="#0B55A0"/>
<path d="M329.603 77.3307H326.903V79.9289H329.603V77.3307Z" fill="#0B55A0"/>
<path d="M329.603 80.5416H326.903V83.1398H329.603V80.5416Z" fill="#0B55A0"/>
<path d="M332.77 67.6981H330.733V70.2962H332.77V67.6981Z" fill="#0B55A0"/>
<path d="M335.151 67.6981H333.114V70.2962H335.151V67.6981Z" fill="#0B55A0"/>
<path d="M332.77 70.909H330.733V75.8601H332.77V70.909Z" fill="#0B55A0"/>
<path d="M335.151 70.909H333.114V75.8601H335.151V70.909Z" fill="#0B55A0"/>
<path d="M332.77 76.3503H330.733V83.1643H332.77V76.3503Z" fill="#0B55A0"/>
<path d="M335.151 76.3503H333.114V83.1643H335.151V76.3503Z" fill="#0B55A0"/>
<path d="M312.444 67.9432L311.315 67.9187L311.168 71.8894H312.444H313.721L313.574 67.9187L312.444 67.9432Z" fill="#0B55A0"/>
<path d="M313.721 59.7812L313.574 55.786L312.444 55.835L311.315 55.786L311.168 59.7812H312.444H313.721Z" fill="#0B55A0"/>
<path d="M335.176 17.1819H310.972V27.0106H335.176H335.249H359.454V17.1819H335.249H335.176ZM314.138 25.4174H312.395V23.4811H314.138V25.4174ZM314.138 23.2115H312.395V18.3829H314.138V23.2115ZM316.299 25.4174H314.556V23.4811H316.299V25.4174ZM316.299 23.2115H314.556V18.3829H316.299V23.2115ZM318.434 25.4174H316.691V23.4811H318.434V25.4174ZM318.434 23.2115H316.691V18.3829H318.434V23.2115ZM320.57 25.4174H318.827V23.4811H320.57V25.4174ZM320.57 23.2115H318.827V18.3829H320.57V23.2115ZM323.491 25.4174H321.748V23.4811H323.491V25.4174ZM323.491 23.2115H321.748V18.3829H323.491V23.2115ZM325.651 25.4174H323.908V23.4811H325.651V25.4174ZM325.651 23.2115H323.908V18.3829H325.651V23.2115ZM327.787 25.4174H326.044V23.4811H327.787V25.4174ZM327.787 23.2115H326.044V18.3829H327.787V23.2115ZM329.923 25.4174H328.18V23.4811H329.923V25.4174ZM329.923 23.2115H328.18V18.3829H329.923V23.2115ZM332.942 25.4174H331.199V23.4811H332.942V25.4174ZM332.942 23.2115H331.199V18.3829H332.942V23.2115ZM335.078 25.4174H333.335V23.4811H335.078V25.4174ZM335.078 23.2115H333.335V18.3829H335.078V23.2115ZM356.262 18.3829H358.005V23.2115H356.262V18.3829ZM356.262 23.4811H358.005V25.4174H356.262V23.4811ZM354.127 18.3829H355.87V23.2115H354.127V18.3829ZM354.127 23.4811H355.87V25.4174H354.127V23.4811ZM351.991 18.3829H353.734V23.2115H351.991V18.3829ZM351.991 23.4811H353.734V25.4174H351.991V23.4811ZM349.831 18.3829H351.574V23.2115H349.831V18.3829ZM349.831 23.4811H351.574V25.4174H349.831V23.4811ZM346.91 18.3829H348.653V23.2115H346.91V18.3829ZM346.91 23.4811H348.653V25.4174H346.91V23.4811ZM344.774 18.3829H346.517V23.2115H344.774V18.3829ZM344.774 23.4811H346.517V25.4174H344.774V23.4811ZM342.638 18.3829H344.381V23.2115H342.638V18.3829ZM342.638 23.4811H344.381V25.4174H342.638V23.4811ZM340.478 18.3829H342.221V23.2115H340.478V18.3829ZM340.478 23.4811H342.221V25.4174H340.478V23.4811ZM337.483 18.3829H339.226V23.2115H337.483V18.3829ZM337.483 23.4811H339.226V25.4174H337.483V23.4811ZM335.348 18.3829H337.09V23.2115H335.348V18.3829ZM335.348 23.4811H337.09V25.4174H335.348V23.4811Z" fill="#0B55A0"/>
<path d="M362.718 27.0106V24.388H363.43V24.1919V19.5349C363.43 19.5349 364.142 19.682 364.437 19.0692V18.5055C364.437 18.5055 364.167 18.1133 363.774 18.2604V18.6525C363.774 18.6525 363.528 19.1427 363.087 18.9467C363.087 18.9467 362.645 18.7996 362.792 18.3829C362.792 18.3829 363.013 18.1378 362.939 17.9417C362.939 17.9417 362.939 17.8927 362.866 17.8192C362.792 17.6966 362.645 17.525 362.326 17.427C362.326 17.427 361.957 17.476 361.81 17.7947C361.736 17.8437 361.736 17.9172 361.736 17.9172C361.736 17.9417 361.736 17.9662 361.736 18.0153C361.761 18.1868 361.884 18.3584 361.884 18.3584C362.031 18.7506 361.589 18.9221 361.589 18.9221C361.123 19.1182 360.902 18.628 360.902 18.628V18.2359C360.509 18.0888 360.239 18.481 360.239 18.481V19.0447C360.534 19.633 361.245 19.5104 361.245 19.5104V24.388H362.031V27.0106H362.718Z" fill="#0B55A0"/>
<path d="M371.31 38.1139V37.9913V32.9667C371.31 32.9667 372.071 33.1138 372.39 32.4765V31.8637C372.39 31.8637 372.096 31.447 371.654 31.6186V32.0353C371.654 32.0353 371.408 32.55 370.917 32.3539C370.917 32.3539 370.451 32.1824 370.598 31.7657C370.598 31.7657 370.844 31.5206 370.77 31.3C370.77 31.3 370.77 31.2264 370.696 31.1774C370.623 31.0549 370.451 30.8588 370.107 30.7607C370.107 30.7607 369.714 30.8098 369.543 31.1529C369.469 31.2264 369.469 31.3 369.469 31.3C369.469 31.3245 369.469 31.3735 369.469 31.398C369.494 31.5696 369.641 31.7657 369.641 31.7657C369.788 32.1824 369.322 32.3539 369.322 32.3539C368.831 32.5745 368.585 32.0353 368.585 32.0353V31.6186C368.168 31.447 367.849 31.8637 367.849 31.8637V32.4765C368.168 33.1138 368.929 32.9667 368.929 32.9667V38.1139H371.31Z" fill="#0B55A0"/>
<path d="M365.689 37.8933V30.7362H335.249H335.176H304.736V37.8933H305.964V34.854C305.964 34.854 306.381 32.5255 308.468 32.5255C310.554 32.5255 310.971 34.854 310.971 34.854V37.8933H311.831V34.854C311.831 34.854 312.567 32.5255 316.151 32.5255C319.735 32.5255 320.471 34.854 320.471 34.854V37.8933H321.38V34.854C321.38 34.854 322.116 32.5255 325.7 32.5255C329.284 32.5255 330.021 34.854 330.021 34.854V37.8933H330.929V34.854C330.929 34.854 331.665 32.55 335.225 32.55C338.784 32.55 339.521 34.854 339.521 34.854V37.8933H340.429V34.854C340.429 34.854 341.165 32.5255 344.749 32.5255C348.333 32.5255 349.07 34.854 349.07 34.854V37.8933H349.978V34.854C349.978 34.854 350.714 32.5255 354.298 32.5255C357.882 32.5255 358.619 34.854 358.619 34.854V37.8933H359.478V34.854C359.478 34.854 359.895 32.5255 361.982 32.5255C364.068 32.5255 364.486 34.854 364.486 34.854V37.8933H365.689Z" fill="#0B55A0"/>
<path d="M346.664 61.8156C347.233 61.8156 347.695 61.3547 347.695 60.7861C347.695 60.2176 347.233 59.7567 346.664 59.7567C346.095 59.7567 345.633 60.2176 345.633 60.7861C345.633 61.3547 346.095 61.8156 346.664 61.8156Z" fill="#0B55A0"/>
<path d="M349.978 67.6981H347.278V70.2962H349.978V67.6981Z" fill="#0B55A0"/>
<path d="M349.978 70.909H347.278V73.5071H349.978V70.909Z" fill="#0B55A0"/>
<path d="M349.978 74.1199H347.278V76.718H349.978V74.1199Z" fill="#0B55A0"/>
<path d="M349.978 77.3307H347.278V79.9289H349.978V77.3307Z" fill="#0B55A0"/>
<path d="M349.978 80.5416H347.278V83.1398H349.978V80.5416Z" fill="#0B55A0"/>
<path d="M346.738 67.6981H344.038V70.2962H346.738V67.6981Z" fill="#0B55A0"/>
<path d="M346.738 70.909H344.038V73.5071H346.738V70.909Z" fill="#0B55A0"/>
<path d="M346.738 74.1199H344.038V76.718H346.738V74.1199Z" fill="#0B55A0"/>
<path d="M346.738 77.3307H344.038V79.9289H346.738V77.3307Z" fill="#0B55A0"/>
<path d="M346.738 80.5416H344.038V83.1398H346.738V80.5416Z" fill="#0B55A0"/>
<path d="M343.497 67.6981H340.797V70.2962H343.497V67.6981Z" fill="#0B55A0"/>
<path d="M343.497 70.909H340.797V73.5071H343.497V70.909Z" fill="#0B55A0"/>
<path d="M343.497 74.1199H340.797V76.718H343.497V74.1199Z" fill="#0B55A0"/>
<path d="M343.497 77.3307H340.797V79.9289H343.497V77.3307Z" fill="#0B55A0"/>
<path d="M343.497 80.5416H340.797V83.1398H343.497V80.5416Z" fill="#0B55A0"/>
<path d="M339.692 67.6981H337.655V70.2962H339.692V67.6981Z" fill="#0B55A0"/>
<path d="M337.311 67.6981H335.274V70.2962H337.311V67.6981Z" fill="#0B55A0"/>
<path d="M339.692 70.909H337.655V75.8601H339.692V70.909Z" fill="#0B55A0"/>
<path d="M337.311 70.909H335.274V75.8601H337.311V70.909Z" fill="#0B55A0"/>
<path d="M339.692 76.3503H337.655V83.1643H339.692V76.3503Z" fill="#0B55A0"/>
<path d="M337.311 76.3503H335.274V83.1643H337.311V76.3503Z" fill="#0B55A0"/>
<path d="M357.981 67.9432L356.851 67.9187L356.704 71.8894H357.981H359.257L359.11 67.9187L357.981 67.9432Z" fill="#0B55A0"/>
<path d="M359.257 59.7812L359.11 55.786L357.981 55.835L356.851 55.786L356.704 59.7812H357.981H359.257Z" fill="#0B55A0"/>
<path d="M335.568 45.32H334.857H299.385L295.752 83.1642H318.95V66.1049H334.832H335.544H351.426V83.1642H374.624L370.991 45.32H335.568ZM339.57 51.6437H343.006H346.443L346.64 53.1633H344.995V53.8251H343.006H341.018V53.1633H339.373L339.57 51.6437ZM345.707 57.2811H344.381L344.308 55.3448L343.031 55.3693L341.755 55.3448L341.681 57.2811H340.355L340.503 54.2663H343.031H345.559L345.707 57.2811ZM323.957 51.6437H327.394H330.831L331.027 53.1633H329.382V53.8251H327.394H325.406V53.1633H323.761L323.957 51.6437ZM330.07 57.2811H328.744L328.671 55.3448L327.394 55.3693L326.118 55.3448L326.044 57.2811H324.718L324.866 54.2663H327.394H329.922L330.07 57.2811ZM319.072 57.7958H334.857H335.568H351.353V58.5802H335.568H334.857H319.072V57.7958ZM318.238 58.9724H334.857H335.568H352.187V62.3548H335.568H334.857H318.238V58.9724ZM312.444 73.5071H309.891L310.211 66.9628H312.444H314.678L314.997 73.5071H312.444ZM314.212 65.9824V66.5706H312.444H310.677V65.9824H309.229L309.401 64.6343H312.444H315.488L315.66 65.9824H314.212ZM309.891 61.3744L310.211 54.8301H312.444H314.678L314.997 61.3744H312.444H309.891ZM314.212 53.8742V54.4624H312.444H310.677V53.8742H309.229L309.401 52.5261H312.444H315.488L315.66 53.8742H314.212ZM353.415 64.0215L351.574 65.5167H335.568H334.857H318.851L317.01 64.0215V62.845H334.857H335.568H353.415V64.0215ZM357.981 73.5071H355.428L355.747 66.9628H357.981H360.215L360.534 73.5071H357.981ZM359.724 65.9824V66.5706H357.956H356.189V65.9824H354.74L354.912 64.6343H357.956H361L361.172 65.9824H359.724ZM355.403 61.3744L355.722 54.8301H357.956H360.19L360.509 61.3744H357.956H355.403ZM359.724 53.8742V54.4624H357.956H356.189V53.8742H354.74L354.912 52.5261H357.956H361L361.172 53.8742H359.724Z" fill="#0B55A0"/>
<path d="M111.864 91.3998L112.454 91.0076C112.454 91.0076 112.184 90.2723 111.349 90.5174L110.711 90.8115V92.0371L110.122 91.6694V90.3949L110.711 90.0027C110.711 90.0027 110.441 89.2674 109.606 89.5125L108.968 89.8066V90.9586L108.256 90.5174V89.3899L108.845 88.9978C108.845 88.9978 108.575 88.2624 107.74 88.5075L107.102 88.8017V89.8066L106.317 89.3164V88.0418L106.979 87.9928L107.028 87.3801L105.752 87.331L105.801 77.7474H70.5505C70.4768 78.5563 70.1331 79.5367 68.9794 80.1004L68.3412 80.321L68.6112 80.4681V80.9338L69.053 81.6691L68.7094 82.0368L69.2003 82.5515L69.053 82.723H69.8631C69.8631 82.723 70.1086 82.2819 70.3786 82.2573L70.2068 82.2083C70.2068 82.2083 70.3295 81.8652 70.5505 81.8652C70.5505 81.8652 70.1331 81.6691 70.3295 81.2034L70.5505 80.7622C70.5505 80.7622 70.7223 80.5171 70.5505 80.321L70.4032 80.3455C70.4032 80.3455 69.9122 79.8798 69.9122 79.6837L70.0595 79.5122L70.7959 79.8553C70.7959 79.8553 70.9678 79.5122 71.3851 79.5367C71.3851 79.5367 71.3851 80.0269 71.0414 80.1249C71.0414 80.1249 71.2623 80.5661 71.1887 80.8357L71.3851 80.8848L72.097 80.9093C72.097 80.9093 72.6125 80.4681 73.2262 81.2034L73.3489 81.4485L73.1034 81.473L73.0789 81.9142C73.0789 81.9142 73.2753 82.1838 73.1525 82.2573L73.4471 82.3799L73.5207 82.625L74.2326 82.674V82.9682H73.8153V83.6054H74.2326V83.9486L74.0117 84.1692V84.7329L73.8399 84.9045H67.7766H67.5065H61.4432L61.2714 84.7329V84.1692L61.0505 83.9486V83.6054H61.4678V82.9682H61.0505V82.674L61.7623 82.625L61.836 82.3799L62.1306 82.2573C62.0078 82.1838 62.2042 81.9142 62.2042 81.9142L62.1797 81.473L61.9342 81.4485L62.0569 81.2034C62.6461 80.4681 63.1861 80.9093 63.1861 80.9093L63.898 80.8848L64.0944 80.8357C64.0207 80.5416 64.2417 80.1249 64.2417 80.1249C63.898 80.0024 63.898 79.5367 63.898 79.5367C64.2908 79.5122 64.4872 79.8553 64.4872 79.8553L65.2236 79.5122L65.3709 79.6837C65.3709 79.8798 64.8799 80.3455 64.8799 80.3455L64.7326 80.321C64.5608 80.5171 64.7326 80.7622 64.7326 80.7622L64.9536 81.2034C65.1499 81.6446 64.7326 81.8652 64.7326 81.8652C64.9536 81.8652 65.0763 82.2083 65.0763 82.2083L64.9045 82.2573C65.1745 82.2819 65.42 82.723 65.42 82.723H66.23L66.0828 82.5515L66.5737 82.0368L66.23 81.6691L66.6719 80.9338V80.4681L66.9419 80.321L66.3037 80.1004C65.1499 79.5367 64.8063 78.5563 64.7326 77.7474H29.5556L29.6047 87.331L28.3282 87.3801L28.3773 87.9928L29.0401 88.0418V89.3164L28.2546 89.8066V88.8017L27.6164 88.5075C26.7817 88.2624 26.5117 88.9978 26.5117 88.9978L27.1009 89.3899V90.5174L26.389 90.9586V89.8066L25.7507 89.5125C24.9161 89.2674 24.6461 90.0027 24.6461 90.0027L25.2352 90.3949V91.6694L24.6461 92.0371V90.8115L24.0078 90.5174C23.1732 90.2723 22.9032 91.0076 22.9032 91.0076L23.4923 91.3998V92.7234L22.1667 93.5322C23.7869 95.5421 26.8308 95.9833 28.451 96.0568V95.9342H33.5815C32.8205 95.5176 30.9303 94.292 30.5375 92.4537C30.5375 92.4537 43.1797 93.2381 47.0091 88.6301V88.6056H67.5311H67.8011H88.3231V88.6301C92.1525 93.2381 104.795 92.4537 104.795 92.4537C104.402 94.3165 102.512 95.5176 101.751 95.9342H106.881V96.0568C108.501 95.9587 111.545 95.5421 113.165 93.5322L111.84 92.7234V91.3998H111.864ZM33.9497 87.4781H31.8631V86.6692H33.9497V87.4781ZM33.9497 86.2771H31.8631V85.6643H33.9497V86.2771ZM33.9497 85.3457H31.8631V84.3407H33.9497V85.3457ZM34.5879 84.0466H31.1022V80.1249L31.5686 80.5661V81.3995H31.9613V80.7377H32.2068L32.4768 81.1789H33.336L33.5324 81.7671H34.5634V84.0466H34.5879ZM39.1784 87.4781H37.0182V86.5957H39.1784V87.4781ZM39.1784 86.3016H37.0182V85.6643H39.1784V86.3016ZM39.1784 85.2967H38.5401H38.1474H36.9936V84.3162H38.1474H38.5401H38.8593C38.8593 84.3162 38.982 84.5859 39.1784 84.6104V85.2967ZM41.7559 87.4781H39.5957V86.5957H41.7559V87.4781ZM41.7559 86.3016H39.5957V85.6643H41.7559V86.3016ZM39.5957 85.2967V84.6104C39.7921 84.5613 39.9148 84.3162 39.9148 84.3162H40.6267H41.3386C41.3386 84.3162 41.4613 84.5859 41.6577 84.6104V85.2967H40.6267H39.5957ZM44.3334 87.4781H42.1732V86.5957H44.3334V87.4781ZM44.3334 86.3016H42.1732V85.6643H44.3334V86.3016ZM42.2223 85.2967V84.6104C42.4187 84.5613 42.5414 84.3162 42.5414 84.3162H43.2533H43.9652C43.9652 84.3162 44.0879 84.5859 44.2843 84.6104V85.2967H43.2533H42.2223ZM46.9109 87.4781H44.7507V86.5957H46.9109V87.4781ZM46.9109 86.3016H44.7507V85.6643H46.9109V86.3016ZM46.9109 85.2967H45.8308H45.389H44.7998V84.6104C44.9962 84.5613 45.1189 84.3162 45.1189 84.3162H45.389H45.8308H46.9109V85.2967ZM47.4019 84.0466H43.7443H40.1603H36.5027V81.7426H37.7301L37.9264 81.1544H38.7856L39.0556 80.7132H39.3011V81.375H39.6939V80.5416L40.1603 80.1004H43.7443L44.2107 80.5416V81.375H44.6034V80.7132H44.8489L45.1189 81.1544H45.9781L46.1745 81.7426H47.4019V84.0466ZM60.1177 84.0466H56.46H52.8761H49.2184V81.7426H50.4458L50.6422 81.1544H51.5014L51.7714 80.7132H52.0169V81.375H52.4096V80.5416L52.8761 80.1004H53.4652C53.4652 79.8553 53.4652 79.5612 53.4652 79.5612H53.367V79.3896H53.5634V78.7523H53.907L54.3244 78.017H54.4471H54.5698L54.9872 78.7523H55.3308V79.3896H55.5272V79.5612H55.429C55.429 79.5612 55.429 79.8553 55.429 80.1004H56.46L56.9264 80.5416V81.375H57.3192V80.7132H57.5647L57.8347 81.1544H58.6939L58.8903 81.7426H60.1177V84.0466ZM86.1383 84.0466H82.4807H78.8967H75.2391V81.7426H76.4665L76.6629 81.1544H77.522L77.7921 80.7132H78.0375V81.375H78.4303V80.5416L78.8967 80.1004H79.9277C79.9277 79.8553 79.9277 79.5612 79.9277 79.5612H79.8295V79.3896H80.0259V78.7523H80.3696L80.7869 78.017H80.9096H81.0324L81.4497 78.7523H81.7934V79.3896H81.9897V79.5612H81.8915C81.8915 79.5612 81.8915 79.8553 81.8915 80.1004H82.4807L82.9471 80.5416V81.375H83.3399V80.7132H83.5853L83.8554 81.1544H84.7145L84.9109 81.7426H86.1383V84.0466ZM90.606 87.4781H88.4458V86.5957H90.606V87.4781ZM90.606 86.3016H88.4458V85.6643H90.606V86.3016ZM88.4458 85.2967V84.3162H89.5259H89.9678H90.2378C90.2378 84.3162 90.3605 84.5859 90.5569 84.6104V85.2967H89.9678H89.5259H88.4458ZM93.1835 87.4781H91.0233V86.5957H93.1835V87.4781ZM93.1835 86.3016H91.0233V85.6643H93.1835V86.3016ZM91.0724 85.2967V84.6104C91.2688 84.5613 91.3915 84.3162 91.3915 84.3162H92.1034H92.8153C92.8153 84.3162 92.9381 84.5859 93.1344 84.6104V85.2967H92.1034H91.0724ZM95.7365 87.4781H93.5763V86.5957H95.7365V87.4781ZM95.7365 86.3016H93.5763V85.6643H95.7365V86.3016ZM95.7365 85.2967H94.7055H93.6745V84.6104C93.8709 84.5613 93.9936 84.3162 93.9936 84.3162H94.7055H95.4174C95.4174 84.3162 95.5401 84.5859 95.7365 84.6104V85.2967ZM98.314 87.4781H96.1538V86.5957H98.314V87.4781ZM98.314 86.3016H96.1538V85.6643H98.314V86.3016ZM98.3386 85.2967H97.1848H96.7921H96.1538V84.6104C96.3502 84.5613 96.4729 84.3162 96.4729 84.3162H96.7921H97.1848H98.3386V85.2967ZM98.8295 84.0466H95.1719H91.5879H87.9303V81.7426H89.1577L89.3541 81.1544H90.2132L90.4833 80.7132H90.7287V81.375H91.1215V80.5416L91.5879 80.1004H95.1719L95.6383 80.5416V81.375H96.0311V80.7132H96.2766L96.5466 81.1544H97.4057L97.6021 81.7426H98.8295V84.0466ZM103.469 87.4781H101.382V86.6692H103.469V87.4781ZM103.469 86.2771H101.382V85.6643H103.469V86.2771ZM103.469 85.3457H101.382V84.3407H103.469V85.3457ZM104.255 84.0466H100.769V81.7426H101.8L101.996 81.1544H102.855L103.125 80.7132H103.371V81.375H103.764V80.5416L104.23 80.1004V84.0466H104.255Z" fill="#0B55A0"/>
<path d="M110.146 73.8012V73.5316L110.735 73.1394C110.735 73.1394 110.465 72.4041 109.63 72.6492L108.992 72.9434V73.7522C108.624 73.7277 108.231 73.7032 107.814 73.6787V73.0414L108.403 72.6492C108.403 72.6492 108.133 71.9139 107.298 72.159L106.66 72.4531V73.5806C106.341 73.5561 106.022 73.5316 105.703 73.5071V72.7718L106.292 72.3796C106.292 72.3796 106.022 71.6443 105.187 71.8894L104.549 72.1835V73.3845C104.23 73.36 103.911 73.311 103.592 73.2865V72.3551L104.181 71.9629C104.181 71.9629 103.911 71.2276 103.076 71.4727L102.438 71.7668V73.1394C99.4677 72.7473 96.3256 72.1835 93.6008 71.3257C91.2687 70.4188 90.9251 67.9187 90.9251 67.9187L89.7713 66.4971H89.3049V67.1098C89.3049 67.1098 89.1085 67.7471 88.1757 67.404C88.1757 67.404 88.9612 66.8157 88.2003 66.2765C88.2003 66.2765 86.9974 65.7618 86.8747 66.9628C86.8747 66.9628 86.7519 67.7471 87.6111 68.2864C87.6111 68.2864 88.2494 69.1442 87.1202 69.6344L86.6292 69.3893V69.8305H69.8385V66.4236H69.1021H68.3902L68.6357 66.1784L68.022 65.3941H68.5129L68.6357 65.1245L68.4884 64.8794H67.9238L67.8501 64.5117V64.0951H68.0956L68.2674 63.8499L68.1447 63.6048H67.8747V62.8695H67.8992L68.022 62.6244L67.8747 62.3548V61.546L67.7274 62.2323L67.5801 61.546V62.3548L67.4328 62.6244L67.5556 62.8695H67.5801V63.6048H67.261L67.1382 63.8499L67.3101 64.0951H67.5556V64.5117L67.4819 64.8794H66.9173L66.77 65.1245L66.8928 65.3941H67.3837L66.77 66.1784L67.0155 66.4236H66.2791H65.5426V69.8305H48.7519V69.3893L48.261 69.6344C47.1318 69.1442 47.77 68.2864 47.77 68.2864C48.6292 67.7226 48.5065 66.9628 48.5065 66.9628C48.3592 65.7373 47.1809 66.2765 47.1809 66.2765C46.4444 66.8402 47.2054 67.404 47.2054 67.404C46.2726 67.7471 46.0762 67.1098 46.0762 67.1098V66.4971H45.6098L44.4561 67.9187C44.4561 67.9187 44.1124 70.4188 41.7804 71.3257C39.0556 72.159 35.938 72.7473 32.9432 73.1394V71.7668L32.3049 71.4727C31.4703 71.2276 31.2003 71.9629 31.2003 71.9629L31.7894 72.3551V73.2865C31.4703 73.3355 31.1512 73.36 30.832 73.3845V72.1835L30.1938 71.8894C29.3592 71.6443 29.0891 72.3796 29.0891 72.3796L29.6783 72.7718V73.5071C29.3592 73.5316 29.0401 73.5561 28.7209 73.5806V72.4531L28.0827 72.159C27.2481 71.9139 26.978 72.6492 26.978 72.6492L27.5672 73.0414V73.6542C27.1744 73.6787 26.7817 73.7032 26.3889 73.7277V72.9188L25.7506 72.6247C24.916 72.3796 24.646 73.1149 24.646 73.1149L25.2351 73.5071V73.7767C22.7067 73.8993 21.062 73.8993 21.062 73.8993V74.9532C21.2338 75.2228 21.4302 75.4434 21.6512 75.664C25.3088 75.8111 37.5827 75.9091 45.438 71.5217H89.354C89.354 71.5217 102.855 76.2768 113.386 76.0317C113.755 75.7621 114.098 75.3944 114.393 74.9777V73.9238C114.344 73.9483 112.674 73.9483 110.146 73.8012ZM67.6783 63.0656L67.6537 62.845H67.7028L67.6783 63.0656Z" fill="#0B55A0"/>
<path d="M73.0297 71.5953H71.7041V77.2572H73.0297V71.5953Z" fill="#0B55A0"/>
<path d="M65.0026 76.4238C65.1499 75.9336 65.4445 75.517 65.7636 75.1738V71.5953H64.438V77.2572H64.8553C64.9044 76.767 65.0026 76.4238 65.0026 76.4238Z" fill="#0B55A0"/>
<path d="M69.3966 71.5953H68.071V74.0218C68.4147 74.1934 68.9302 74.463 69.3966 74.8552V71.5953Z" fill="#0B55A0"/>
<path d="M71.2133 77.2572V71.5953H69.8877V75.3454C70.1577 75.664 70.3787 76.0072 70.5014 76.4238C70.5014 76.4238 70.5996 76.767 70.6241 77.2572H71.2133Z" fill="#0B55A0"/>
<path d="M67.5801 71.5953H66.2791V74.7326C66.77 74.3405 67.2855 74.0954 67.6046 73.9483V71.5953H67.5801Z" fill="#0B55A0"/>
<path d="M58.5465 71.5953H57.2209V77.2572H58.5465V71.5953Z" fill="#0B55A0"/>
<path d="M60.3632 71.5953H59.0376V77.2572H60.3632V71.5953Z" fill="#0B55A0"/>
<path d="M62.1552 71.5953H60.8296V77.2572H62.1552V71.5953Z" fill="#0B55A0"/>
<path d="M63.9716 71.5953H62.646V77.2572H63.9716V71.5953Z" fill="#0B55A0"/>
<path d="M78.4547 71.5953H77.1292V77.2572H78.4547V71.5953Z" fill="#0B55A0"/>
<path d="M85.6718 71.5953H84.3462V77.2572H85.6718V71.5953Z" fill="#0B55A0"/>
<path d="M83.8798 71.5953H82.5542V77.2572H83.8798V71.5953Z" fill="#0B55A0"/>
<path d="M82.0634 71.5953H80.7378V77.2572H82.0634V71.5953Z" fill="#0B55A0"/>
<path d="M87.4884 71.5953H86.1628V77.2572H87.4884V71.5953Z" fill="#0B55A0"/>
<path d="M80.2467 71.5953H78.9211V77.2572H80.2467V71.5953Z" fill="#0B55A0"/>
<path d="M76.6383 71.5953H75.3127V77.2572H76.6383V71.5953Z" fill="#0B55A0"/>
<path d="M56.7301 71.5953H55.4045V77.2572H56.7301V71.5953Z" fill="#0B55A0"/>
<path d="M74.8217 71.5953H73.4961V77.2572H74.8217V71.5953Z" fill="#0B55A0"/>
<path d="M35.5208 74.8552V77.2572H36.8463V74.6101C36.4044 74.7081 35.9626 74.7817 35.5208 74.8552Z" fill="#0B55A0"/>
<path d="M30.0957 75.566V77.2817H31.4213V75.4434C30.9549 75.4679 30.513 75.517 30.0957 75.566Z" fill="#0B55A0"/>
<path d="M31.8877 75.3699V77.2572H33.2133V75.2228C32.7714 75.2719 32.3296 75.3454 31.8877 75.3699Z" fill="#0B55A0"/>
<path d="M33.7041 75.1493V77.2572H35.0297V74.9532C34.5878 75.0267 34.146 75.1003 33.7041 75.1493Z" fill="#0B55A0"/>
<path d="M89.3048 71.5953H87.9792V77.2572H89.3048V71.5953Z" fill="#0B55A0"/>
<path d="M25.9716 75.7621C24.106 75.8111 22.6086 75.7621 21.6758 75.7375C23.1487 77.1837 25.3089 77.2817 25.9716 77.2572V75.7621Z" fill="#0B55A0"/>
<path d="M29.6046 77.2572V75.5905C29.1628 75.615 28.7209 75.664 28.2791 75.664V77.2572H28.5491H29.6046Z" fill="#0B55A0"/>
<path d="M54.9378 71.5953H53.6123V77.2572H54.9378V71.5953Z" fill="#0B55A0"/>
<path d="M27.788 75.713C27.3216 75.7376 26.8797 75.7621 26.4624 75.7621V77.2572H27.788V75.713Z" fill="#0B55A0"/>
<path d="M37.3127 74.512V77.2572H38.6383V74.1934C38.1965 74.3159 37.7546 74.414 37.3127 74.512Z" fill="#0B55A0"/>
<path d="M47.6964 71.5953H46.3708V77.2572H47.6964V71.5953Z" fill="#0B55A0"/>
<path d="M51.3048 71.5953H49.9792V77.2572H51.3048V71.5953Z" fill="#0B55A0"/>
<path d="M49.5128 71.5953H48.1873V77.2572H49.5128V71.5953Z" fill="#0B55A0"/>
<path d="M39.1292 74.0709V77.2572H40.4547V73.6787C40.0129 73.8257 39.571 73.9483 39.1292 74.0709Z" fill="#0B55A0"/>
<path d="M53.1215 71.5953H51.7959V77.2572H53.1215V71.5953Z" fill="#0B55A0"/>
<path d="M40.9458 73.5316V77.2572H42.2714V73.0659C41.8295 73.2375 41.3877 73.3846 40.9458 73.5316Z" fill="#0B55A0"/>
<path d="M42.7378 72.8698V77.2572H44.0634V72.3061C43.6461 72.5022 43.2042 72.6983 42.7378 72.8698Z" fill="#0B55A0"/>
<path d="M45.4625 71.5953C45.1679 71.7668 44.8733 71.9139 44.5542 72.061V77.2572H45.8798V71.5953H45.4625Z" fill="#0B55A0"/>
<path d="M109.68 77.2817C110.416 77.2817 112.085 77.1347 113.411 76.1297C112.208 76.1543 110.932 76.1297 109.68 76.0317V77.2817Z" fill="#0B55A0"/>
<path d="M91.5879 72.3306V77.2817H92.9135V72.7473C92.4225 72.5757 91.9807 72.4531 91.5879 72.3306Z" fill="#0B55A0"/>
<path d="M109.189 75.9827C108.747 75.9581 108.305 75.9091 107.863 75.8601V77.2817H109.189V75.9827Z" fill="#0B55A0"/>
<path d="M102.438 75.0513V77.2817H103.764V75.2964C103.322 75.1983 102.88 75.1248 102.438 75.0513Z" fill="#0B55A0"/>
<path d="M93.4045 72.8698V77.2817H94.7301V73.262C94.2637 73.1149 93.8218 72.9924 93.4045 72.8698Z" fill="#0B55A0"/>
<path d="M95.2209 73.36V77.2572H96.5465V73.7032C96.0801 73.6052 95.6383 73.4826 95.2209 73.36Z" fill="#0B55A0"/>
<path d="M100.646 74.6836V77.2572H101.972V74.9532C101.505 74.8552 101.063 74.7816 100.646 74.6836Z" fill="#0B55A0"/>
<path d="M98.8296 74.2914V77.2817H100.155V74.5856C99.7133 74.4875 99.2715 74.3895 98.8296 74.2914Z" fill="#0B55A0"/>
<path d="M107.397 75.7866C106.955 75.7375 106.513 75.6885 106.071 75.615V77.2572H106.955H107.397V75.7866Z" fill="#0B55A0"/>
<path d="M97.0129 73.8503V77.2817H98.3385V74.1934C97.8966 74.0463 97.4548 73.9483 97.0129 73.8503Z" fill="#0B55A0"/>
<path d="M89.7959 71.7423V77.2572H91.1215V72.159C90.5323 71.9874 90.0905 71.8404 89.7959 71.7423Z" fill="#0B55A0"/>
<path d="M104.255 75.3699V77.2817H105.58V75.5905C105.138 75.4925 104.697 75.4434 104.255 75.3699Z" fill="#0B55A0"/>
<path d="M85.7454 89.0958H84.469V95.7872H85.7454V89.0958Z" fill="#0B55A0"/>
<path d="M59.3322 89.0958H58.0557V95.7872H59.3322V89.0958Z" fill="#0B55A0"/>
<path d="M57.5892 89.0958H56.3127V95.7872H57.5892V89.0958Z" fill="#0B55A0"/>
<path d="M84.0026 89.0958H82.7261V95.7872H84.0026V89.0958Z" fill="#0B55A0"/>
<path d="M62.8668 89.0958H61.5903V95.7872H62.8668V89.0958Z" fill="#0B55A0"/>
<path d="M61.0995 89.0958H59.823V95.7872H61.0995V89.0958Z" fill="#0B55A0"/>
<path d="M87.4637 89.0958H86.2363V95.7872H87.5128V89.1448C87.4883 89.1203 87.4883 89.1203 87.4637 89.0958Z" fill="#0B55A0"/>
<path d="M103.715 93.14C102.487 93.1645 101.382 93.14 100.327 93.091V95.6401C103.248 94.6597 103.715 93.14 103.715 93.14Z" fill="#0B55A0"/>
<path d="M52.3114 89.0958H51.0349V95.7872H52.3114V89.0958Z" fill="#0B55A0"/>
<path d="M54.0543 89.0958H52.7778V95.7872H54.0543V89.0958Z" fill="#0B55A0"/>
<path d="M66.3773 89.0958H65.1008V95.7872H66.3773V89.0958Z" fill="#0B55A0"/>
<path d="M78.7003 89.0958H77.4238V95.7872H78.7003V89.0958Z" fill="#0B55A0"/>
<path d="M69.9122 89.0958H68.6357V95.7872H69.9122V89.0958Z" fill="#0B55A0"/>
<path d="M71.6796 89.0958H70.4031V95.7872H71.6796V89.0958Z" fill="#0B55A0"/>
<path d="M73.4225 89.0958H72.146V95.7872H73.4225V89.0958Z" fill="#0B55A0"/>
<path d="M76.9574 89.0958H75.6809V95.7872H76.9574V89.0958Z" fill="#0B55A0"/>
<path d="M68.1446 89.0958H67.801H67.5309H66.8682V95.7872H67.5309H68.1446V89.0958Z" fill="#0B55A0"/>
<path d="M64.6344 89.0958H63.3579V95.7872H64.6344V89.0958Z" fill="#0B55A0"/>
<path d="M50.5441 89.0958H49.2676V95.7872H50.5441V89.0958Z" fill="#0B55A0"/>
<path d="M82.2352 89.0958H80.9587V95.7872H82.2352V89.0958Z" fill="#0B55A0"/>
<path d="M80.4677 89.0958H79.1912V95.7872H80.4677V89.0958Z" fill="#0B55A0"/>
<path d="M55.8217 89.0958H54.5452V95.7872H55.8217V89.0958Z" fill="#0B55A0"/>
<path d="M95.0491 92.4537V95.7871H96.3256V92.6743C95.8592 92.6008 95.4418 92.5273 95.0491 92.4537Z" fill="#0B55A0"/>
<path d="M36.4535 92.993C36.0362 93.0175 35.6189 93.0665 35.177 93.091V95.6891C35.2997 95.7382 35.4225 95.7627 35.5452 95.8117H36.4535V92.993Z" fill="#0B55A0"/>
<path d="M75.1898 89.0958H73.9133V95.7872H75.1898V89.0958Z" fill="#0B55A0"/>
<path d="M36.9443 92.9439V95.7872H38.2208V92.7969C37.8035 92.8459 37.3862 92.8949 36.9443 92.9439Z" fill="#0B55A0"/>
<path d="M96.792 92.7479V95.7872H98.0685V92.8949C97.6266 92.8704 97.2093 92.8214 96.792 92.7479Z" fill="#0B55A0"/>
<path d="M99.8358 95.7872V93.0665C99.394 93.042 98.9766 93.0175 98.5593 92.9685V95.8117H99.7867C99.8113 95.7872 99.8113 95.7872 99.8358 95.7872Z" fill="#0B55A0"/>
<path d="M93.2817 92.0371V95.7872H94.5582V92.3557C94.0918 92.2577 93.6745 92.1351 93.2817 92.0371Z" fill="#0B55A0"/>
<path d="M88.0039 89.5615V95.7872H89.2804V90.4194C88.7404 90.1008 88.323 89.8066 88.0039 89.5615Z" fill="#0B55A0"/>
<path d="M31.6421 93.1401C31.6421 93.1401 32.084 94.5372 34.7106 95.5176V93.1155C33.7287 93.1401 32.7222 93.1646 31.6421 93.1401Z" fill="#0B55A0"/>
<path d="M45.7327 90.5909V95.7872H47.0092V89.8066C46.6655 90.0517 46.2482 90.3213 45.7327 90.5909Z" fill="#0B55A0"/>
<path d="M89.7468 90.689V95.8117H91.0233V91.2772C90.5569 91.0812 90.1396 90.8851 89.7468 90.689Z" fill="#0B55A0"/>
<path d="M38.7119 92.7234V95.7872H39.9884V92.5028C39.5711 92.6008 39.1538 92.6743 38.7119 92.7234Z" fill="#0B55A0"/>
<path d="M43.9897 91.3998V95.7872H45.2662V90.8361C44.8735 91.0321 44.4562 91.2282 43.9897 91.3998Z" fill="#0B55A0"/>
<path d="M47.8929 89.0958C47.7947 89.1939 47.6474 89.3164 47.5247 89.439V95.7872H48.8011V89.0958H47.8929Z" fill="#0B55A0"/>
<path d="M40.4548 92.4292V95.7872H41.7313V92.1106C41.3386 92.2331 40.9212 92.3312 40.4548 92.4292Z" fill="#0B55A0"/>
<path d="M91.5142 91.4488V95.7872H92.7907V91.89C92.3243 91.7429 91.9069 91.5959 91.5142 91.4488Z" fill="#0B55A0"/>
<path d="M42.2222 91.988V95.7871H43.4986V91.5714C43.1059 91.7184 42.6886 91.8655 42.2222 91.988Z" fill="#0B55A0"/>
<path d="M110.195 108.606H111.079V107.577H105.801V106.106V96.498H103.935H100.769H98.9032H67.8011H36.4536H34.5879H31.4213H29.5556V106.106V107.577H24.2533V108.606H25.137V114.195H22.1667V122.945H67.5311H113.165V114.195H110.195V108.606ZM34.5879 107.577H31.4213V98.9981L31.7158 99.2922V100.126H32.1086V99.4638H32.3541L32.6241 99.9049H33.4833L33.6797 100.493H34.5879V107.577ZM90.6551 97.1598C91.1706 97.1598 91.5634 97.5764 91.5634 98.0667C91.5634 98.5814 91.1461 98.9735 90.6551 98.9735C90.1396 98.9735 89.7468 98.5569 89.7468 98.0667C89.7223 97.5764 90.1396 97.1598 90.6551 97.1598ZM72.0479 97.1598C72.5634 97.1598 72.9561 97.5764 72.9561 98.0667C72.9561 98.5814 72.5388 98.9735 72.0479 98.9735C71.5324 98.9735 71.1396 98.5569 71.1396 98.0667C71.1396 97.5764 71.5569 97.1598 72.0479 97.1598ZM68.5866 100.812H69.7649L69.9613 100.224H70.8205L71.0905 99.7824H71.336V100.444H71.7288V99.6108L72.1952 99.1696L72.6616 99.6108V100.444H73.0543V99.7824H73.2998L73.5698 100.224H74.429L74.6254 100.812H75.8282V107.577H68.5621V100.812H68.5866ZM75.9755 111.744V113.582H59.7003V111.744H75.9755ZM67.6784 97.1598C68.1939 97.1598 68.5866 97.5764 68.5866 98.0667C68.5866 98.5814 68.1693 98.9735 67.6784 98.9735C67.1629 98.9735 66.7701 98.5569 66.7701 98.0667C66.7456 97.5764 67.1629 97.1598 67.6784 97.1598ZM63.2352 97.1598C63.7507 97.1598 64.1435 97.5764 64.1435 98.0667C64.1435 98.5814 63.7262 98.9735 63.2352 98.9735C62.7197 98.9735 62.327 98.5569 62.327 98.0667C62.327 97.5764 62.7443 97.1598 63.2352 97.1598ZM59.504 100.812H60.7068L60.9032 100.224H61.7623L62.0324 99.7824H62.2779V100.444H62.6706V99.6108L63.137 99.1696L63.6034 99.6108V100.444H63.9962V99.7824H64.2417L64.5117 100.224H65.3709L65.5672 100.812H66.7456V107.577H59.4794V100.812H59.504ZM57.5892 114.391H78.0621V116.229H57.5892V114.391ZM80.345 117.062V118.901H55.0117V117.062H80.345ZM44.628 97.1598C45.1435 97.1598 45.5363 97.5764 45.5363 98.0667C45.5363 98.5814 45.1189 98.9735 44.628 98.9735C44.1125 98.9735 43.7197 98.5569 43.7197 98.0667C43.7197 97.5764 44.137 97.1598 44.628 97.1598ZM48.2856 107.577H36.429V99.4883L36.699 99.9049H37.5582L37.7546 100.493H38.6874V107.552H40.9704V100.836H42.1978L42.3941 100.248H43.2533L43.5233 99.8069H43.7688V100.469H44.1616V99.6353L44.628 99.1941L45.0944 99.6353V100.469H45.4872V99.8069H45.7326L46.0027 100.248H46.8618L47.0582 100.836H48.2856V107.577ZM49.1939 98.9981C48.6784 98.9981 48.2856 98.5814 48.2856 98.0912C48.2856 97.5764 48.7029 97.1843 49.1939 97.1843C49.7094 97.1843 50.1021 97.601 50.1021 98.0912C50.1021 98.5814 49.6848 98.9981 49.1939 98.9981ZM50.3476 100.812H51.5014L51.6977 100.224H52.5569L52.827 99.7824H53.0724V100.444H53.4652V99.6108L53.9316 99.1696L54.398 99.6108V100.444H54.7908V99.7824H55.0363L55.3063 100.224H56.1654L56.3618 100.812H57.5156V107.577H50.2985V100.812H50.3476ZM83.5853 121.548H51.8941V119.709H83.6099V121.548H83.5853ZM85.0091 107.577H77.7921V100.812H78.9458L79.1422 100.224H80.0014L80.2714 99.7824H80.5169V100.444H80.9096V99.6108L81.376 99.1696L81.8425 99.6108V100.444H82.2352V99.7824H82.4807L82.7507 100.224H83.6099L83.8063 100.812H84.96V107.577H85.0091ZM86.1138 98.9981C85.5983 98.9981 85.2055 98.5814 85.2055 98.0912C85.2055 97.5764 85.6228 97.1843 86.1138 97.1843C86.6293 97.1843 87.022 97.601 87.022 98.0912C87.022 98.5814 86.6047 98.9981 86.1138 98.9981ZM98.9032 107.577H87.0466V100.812H88.274L88.4704 100.224H89.3295L89.5995 99.7824H89.845V100.444H90.2378V99.6108L90.7042 99.1696L91.1706 99.6108V100.444H91.5634V99.7824H91.8089L92.0789 100.224H92.938L93.1344 100.812H94.3618V107.528H96.6448V100.493H97.5776L97.774 99.9049H98.6331L98.9032 99.4883V107.577ZM103.935 107.577H100.769V100.493H101.677L101.873 99.9049H102.733L103.003 99.4638H103.248V100.126H103.641V99.2922L103.935 98.9981V107.577Z" fill="#0B55A0"/>
<path fill-rule="evenodd" clip-rule="evenodd" d="M228.565 46.0063C228.786 46.2514 229.154 46.1534 229.277 46.3985C228.589 46.8396 227.116 47.1583 227.386 48.5309C228.319 48.6044 228.859 47.8446 229.718 47.7465C230.185 47.1338 230.921 47.0848 231.412 46.521C232.32 46.8887 233.131 47.1338 233.523 46.1534C233.204 45.8102 232.713 46.0308 232.345 45.9328C231.928 45.4671 232.959 44.9523 232.738 44.2415C231.854 43.6533 231.044 44.0945 230.578 44.8053C230.528 44.9033 230.528 45.0994 230.43 45.1729C229.841 45.7857 228.957 45.222 228.565 46.0063Z" fill="#0B55A0"/>
<path fill-rule="evenodd" clip-rule="evenodd" d="M240.568 39.7071C239.685 39.1924 238.826 39.413 238.187 39.7071C237.5 39.7071 236.739 39.5355 236.395 40.2218C237.598 40.4179 236.813 41.6189 236.837 42.5258C236.862 43.0895 237.034 43.8494 237.23 44.2906C237.328 44.5357 237.549 44.9033 237.844 45.0259C238.114 44.3396 238.31 43.3346 238.163 42.7219C238.555 42.1826 238.678 41.4963 238.629 40.9326C238.973 40.9326 238.85 41.2758 239.169 41.3493C239.93 41.5454 240.127 40.1238 240.568 39.7071Z" fill="#0B55A0"/>
<path fill-rule="evenodd" clip-rule="evenodd" d="M219.58 33.3344C218.107 33.9716 217.297 37.3296 217.715 38.7267C216.978 39.0453 216.193 39.2904 215.481 39.6581C216.389 41.815 219.163 40.5405 220.66 40.2953C221.618 40.663 222.452 40.2953 222.698 39.511C221.961 38.9718 221.2 39.413 220.488 39.3149C220.243 37.3051 220.145 35.2217 219.58 33.3344Z" fill="#0B55A0"/>
<path fill-rule="evenodd" clip-rule="evenodd" d="M227.779 38.1629C227.362 38.6041 226.527 38.1139 226.159 38.6286C226.282 38.9473 226.846 39.0453 226.871 39.413C226.675 39.9032 226.012 40.0993 225.594 40.614C225.128 41.2267 224.392 42.3542 225.054 42.918C225.619 42.7219 226.159 42.4032 226.527 41.766C227.239 41.1777 228.049 40.8101 228.54 39.7561C228.957 39.9277 229.105 40.2218 229.424 40.4669C230.038 40.5404 230.774 39.413 230.381 38.8492C229.939 38.7022 229.743 39.0943 229.252 38.8247C229.399 38.1384 230.872 35.908 229.939 35.6629C229.08 35.4423 228.098 36.9374 227.779 38.1629Z" fill="#0B55A0"/>
<path fill-rule="evenodd" clip-rule="evenodd" d="M243.465 43.1386C242.999 43.2121 242.459 43.1141 242.041 43.2611C241.968 43.7023 242.581 43.8003 242.655 44.168C241.919 45.0749 240.691 47.1583 241.379 48.2368C241.722 48.2613 241.722 47.9181 242.066 48.1142C242.68 46.6681 243.833 45.9573 244.422 44.5602C244.864 44.7563 244.84 45.1729 245.429 45.2955C245.895 45.1239 246.656 44.2906 246.337 43.6778C245.895 43.4082 245.773 43.8249 245.355 43.6288C245.478 42.918 246.116 42.4523 246.484 41.7169C245.11 41.0307 244.103 41.9621 243.465 43.1386Z" fill="#0B55A0"/>
<path d="M395.195 35.9324V29.045V28.2606V21.5693V20.7849V16.4711H394.115V20.7849H392.961V16.4711H392.348H392.274H391.66V20.7849H390.507V16.4711H389.426V20.7849V21.5693V28.2851V29.0695V35.9569L382.455 38.1139V39.1188L383.24 41.1532H384.468V47.7465H383.24V49.3887H384.468V99.0225H383.24V104.586H392.298H392.372H401.43V99.0225H400.203V49.3642H401.43V47.722H400.203V41.1287H401.43L402.216 39.0943V38.0894L395.195 35.9324ZM392.937 21.5693H394.09V28.2851H392.937V21.5693ZM392.937 29.0695H394.09V34.3883H392.937V29.0695ZM392.249 40.9571H392.323H393.256V47.673H392.323H392.249H391.317V40.9571H392.249ZM390.482 21.5693H391.636V28.2851H390.482V21.5693ZM390.482 29.0695H391.636V34.3883H390.482V29.0695ZM387.364 47.673H385.351V40.9571H387.364V47.673ZM388.297 40.9571H390.31V47.673H388.297V40.9571ZM394.262 92.2822H392.323H392.249H390.31V87.38H392.249H392.323H394.262V92.2822ZM394.262 81.6936H392.323H392.249H390.31V76.7915H392.249H392.323H394.262V81.6936ZM394.262 71.1051H392.323H392.249H390.31V66.2029H392.249H392.323H394.262V71.1051ZM394.262 60.5165H392.323H392.249H390.31V55.6144H392.249H392.323H394.262V60.5165ZM396.275 47.673H394.262V40.9571H396.275V47.673ZM399.221 47.673H397.208V40.9571H399.221V47.673Z" fill="#0B55A0"/>
<path d="M187.103 58.6047L186.171 59.5606C184.06 61.4725 176.572 62.0852 176.572 62.0852H171.859V43.9229H176.474C176.474 43.9229 178.904 40.9816 182.488 40.4669C182.488 40.4669 186.465 39.0698 187.103 37.0109C187.103 37.0109 183.102 39.3149 178.782 38.9228H171.761L169.257 25.7851H168.594V29.045H155.633V26.5449L156.591 24.8292H155.535C155.535 24.8292 155.756 22.0595 154.823 22.0595H154.062C153.129 22.0595 153.35 24.8292 153.35 24.8292H152.295L153.252 26.5449V29.045H140.291V25.7851H139.628L137.124 38.9228H130.103C125.783 39.3149 121.782 37.0109 121.782 37.0109C122.42 39.0453 126.397 40.4669 126.397 40.4669C129.981 40.9816 132.411 43.9229 132.411 43.9229H137.026V62.0852H132.313C132.313 62.0852 124.826 61.4725 122.715 59.5606L121.782 58.6047C121.782 58.6047 121.266 60.5901 123.868 62.0852C123.868 62.0852 128.385 63.6784 130.889 65.5167L132.043 66.4726H133.393V68.9727H132.436V70.2227H133.786L133.687 101.572H147.606V72.7963H154.455H161.304V101.572H175.222L175.124 70.2227H176.474V68.9727H175.517V66.4726H176.867L178.021 65.5167C180.525 63.7029 185.041 62.0852 185.041 62.0852C187.619 60.5901 187.103 58.6047 187.103 58.6047ZM169.969 36.6188L170.485 38.9718H169.969V36.6188ZM168.103 30.295H168.472V38.9718H168.103V30.295ZM166.262 30.295H166.631V38.9718H166.262V30.295ZM164.421 30.295H164.79V38.9718H164.421V30.295ZM162.58 30.295H162.948V38.9718H162.58V30.295ZM160.715 30.295H161.083V38.9718H160.715V30.295ZM158.873 30.295H159.242V38.9718H158.873V30.295ZM157.032 30.295H157.401V38.9718H157.032V30.295ZM155.167 30.295H155.535V38.9718H155.167V30.295ZM153.326 30.295H153.694V38.9718H153.326V30.295ZM151.485 30.295H151.853V38.9718H151.485V30.295ZM149.643 30.295H150.012V38.9718H149.643V30.295ZM147.778 30.295H148.146V38.9718H147.778V30.295ZM145.937 30.295H146.305V38.9718H145.937V30.295ZM144.096 30.295H144.464V38.9718H144.096V30.295ZM142.255 30.295H142.623V38.9718H142.255V30.295ZM140.389 30.295H140.757V38.9718H140.389V30.295ZM138.916 37.0109V38.9718H138.523L138.916 37.0109ZM138.131 43.6778H154.406H154.504H170.779V44.4376H169.92H154.479H154.406H138.131V43.6778ZM168.938 47.2563V62.0852H164.078V47.2563H168.938ZM161.107 47.2563V62.0852H154.455H147.802V47.2563H161.107ZM144.857 47.2563V62.0852H139.996V47.2563H144.857ZM145.372 78.1886L144.464 78.3847V80.076H143.433V90.6645H144.464V91.6939H140.438H136.412V90.6645H137.443V80.076H136.412V78.3847L135.504 78.1886V77.6249H140.438H145.372V78.1886ZM173.406 78.1886L172.497 78.3847V80.076H171.466V90.6645H172.497V91.6939H168.472H164.446V90.6645H165.477V80.076H164.446V78.3847L163.538 78.1886V77.6249H168.472H173.406V78.1886ZM174.24 67.0609H154.455H134.669V66.301H154.455H174.24V67.0609Z" fill="#0B55A0"/>
<path d="M140.021 80.125H138.646V90.5665H140.021V80.125Z" fill="#0B55A0"/>
<path d="M142.181 80.125H140.806V90.5665H142.181V80.125Z" fill="#0B55A0"/>
<path d="M168.054 80.125H166.68V90.5665H168.054V80.125Z" fill="#0B55A0"/>
<path d="M170.215 80.125H168.84V90.5665H170.215V80.125Z" fill="#0B55A0"/>
<path d="M262.539 61.8646V62.8205H264.159V97.0862H289.124V75.8601V62.8205H290.72V61.8646H289.64V57.6488V56.9135V56.5948H287.676V54.3889H282.987V47.5749C282.987 47.5749 282.643 45.369 280.655 44.9768L280.827 44.5111L278.225 43.7758C278.225 43.7758 277.218 43.6778 276.875 41.2022L276.654 39.1923L275.795 37.5746L276.261 37.0844L275.525 36.6678L275.377 35.7854C275.377 35.7854 275.279 34.5599 273.855 34.9275L272.996 35.1971L273.242 35.6628L272.996 36.6187L273.34 36.8148L273.168 37.5256C273.168 37.5256 273.193 38.0158 273.757 38.0158L273.659 38.1384L271.646 37.9913L270.394 38.4815C270.394 38.4815 269.977 38.9472 270.1 39.1923H270.173C270.173 39.1923 270.1 39.462 270.222 39.4865C270.222 39.4865 270.296 39.7561 270.394 39.7561L270.419 39.8786L270.566 39.9767L270.787 39.8296L271.597 42.0111L271.474 42.2807L271.401 42.967H271.229C271.229 42.967 269.609 40.5649 266.884 40.4424L264.895 40.4914L264.503 41.2022L264.871 42.0111L264.503 42.6973C264.503 42.6973 264.355 43.2366 264.822 43.4082L264.846 44.8788C264.846 44.8788 264.797 45.7612 265.853 46.0553C265.853 46.0553 266.196 45.9327 266.221 45.8592L266.663 45.7857C266.663 45.7857 266.933 45.418 266.81 45.2219C266.761 45.1484 266.687 45.0013 266.687 45.0013L266.859 44.266C266.859 44.266 267.105 43.9229 267.105 43.7268C267.105 43.7268 267.497 45.0749 268.136 45.8592L268.308 46.472C268.308 46.472 268.283 47.6485 269.019 48.4328C269.019 48.4328 268.848 48.972 269.609 50.3201C269.609 50.3201 269.756 51.227 269.805 51.6437L270.075 52.8447V53.3349L269.928 53.6781L269.805 54.3153L269.535 54.4134H265.583V56.6193H263.766V56.938V57.6733V61.8891H262.539V61.8646ZM265.705 58.9723C265.632 58.7518 265.46 58.4331 264.994 58.3596C264.478 58.4576 264.331 58.8253 264.257 59.0459V57.6488H265.681V58.9723H265.705ZM265.043 59.1929C264.895 59.1929 264.773 59.0704 264.773 58.9233C264.773 58.7763 264.895 58.6537 265.043 58.6537C265.19 58.6537 265.313 58.7763 265.313 58.9233C265.313 59.0704 265.19 59.1929 265.043 59.1929ZM265.337 59.1929L265.485 59.438V60.7616H265.092V59.5116L265.337 59.1929ZM264.92 60.7616H264.527V59.438L264.674 59.1929L264.92 59.5116V60.7616ZM265.705 61.8646H264.503H264.282V60.9577H265.018H265.73V61.8646H265.705ZM266.712 58.9233C266.712 58.7763 266.835 58.6537 266.982 58.6537C267.129 58.6537 267.252 58.7763 267.252 58.9233C267.252 59.0704 267.129 59.1929 266.982 59.1929C266.835 59.1929 266.712 59.0704 266.712 58.9233ZM266.884 59.5116V60.7616H266.491V59.438L266.638 59.1929L266.884 59.5116ZM267.301 59.1929L267.448 59.438V60.7616H267.056V59.5116L267.301 59.1929ZM267.669 60.9577V61.8646H266.246V60.9577H266.982H267.669ZM266.246 59.0459V57.6488H267.669V58.9723C267.596 58.7518 267.424 58.4331 266.957 58.3596C266.442 58.4576 266.295 58.8253 266.246 59.0459ZM269.265 56.5948H267.547C267.694 55.9576 268.013 55.4918 268.406 55.4918C268.799 55.4918 269.118 55.933 269.265 56.5948ZM269.609 58.9723C269.535 58.7518 269.363 58.4331 268.897 58.3596C268.381 58.4576 268.234 58.8253 268.185 59.0459V57.6488H269.609V58.9723ZM268.946 59.1929C268.798 59.1929 268.676 59.0704 268.676 58.9233C268.676 58.7763 268.798 58.6537 268.946 58.6537C269.093 58.6537 269.216 58.7763 269.216 58.9233C269.216 59.0704 269.093 59.1929 268.946 59.1929ZM269.24 59.1929L269.388 59.438V60.7616H268.995V59.5116L269.24 59.1929ZM268.823 60.7616H268.43V59.438L268.578 59.1929L268.823 59.5116V60.7616ZM269.609 61.8646H268.185V60.9577H268.897H269.609V61.8646ZM270.615 58.9233C270.615 58.7763 270.738 58.6537 270.885 58.6537C271.032 58.6537 271.155 58.7763 271.155 58.9233C271.155 59.0704 271.032 59.1929 270.885 59.1929C270.738 59.1929 270.615 59.0704 270.615 58.9233ZM270.787 59.5116V60.7616H270.394V59.438L270.541 59.1929L270.787 59.5116ZM271.204 59.1929L271.351 59.438V60.7616H270.959V59.5116L271.204 59.1929ZM271.572 60.9577V61.8646H270.149V60.9577H270.861H271.572ZM270.149 59.0459V57.6488H271.572V58.9723C271.499 58.7518 271.327 58.4331 270.861 58.3596C270.37 58.4576 270.198 58.8008 270.149 59.0459ZM271.204 53.1388L270.861 53.7271L270.934 53.1879L270.787 52.0359C270.787 52.0359 270.468 51.0554 270.615 50.5162C270.615 50.5162 270.247 49.1436 270.222 48.874L270.811 50.4672C270.811 50.4672 270.64 51.5457 271.032 51.9133L271.204 53.1388ZM271.769 55.4918C272.137 55.4918 272.481 55.933 272.628 56.5948H270.91C271.081 55.933 271.401 55.4918 271.769 55.4918ZM272.579 58.9233C272.579 58.7763 272.702 58.6537 272.849 58.6537C272.996 58.6537 273.119 58.7763 273.119 58.9233C273.119 59.0704 272.996 59.1929 272.849 59.1929C272.702 59.1929 272.579 59.0704 272.579 58.9233ZM272.726 59.5116V60.7616H272.333V59.438L272.481 59.1929L272.726 59.5116ZM273.143 59.1929L273.291 59.438V60.7616H272.898V59.5116L273.143 59.1929ZM273.512 60.9577V61.8646H272.088V60.9577H272.8H273.512ZM272.088 59.0459V57.6488H273.512V58.9723C273.438 58.7272 273.266 58.4331 272.8 58.3596C272.309 58.4576 272.137 58.8008 272.088 59.0459ZM272.726 39.3149L271.793 41.5944L270.983 39.462L271.548 38.9227H271.818L272.726 39.3149ZM279.109 51.8398L277.562 53.7761L277.39 54.3889H271.72L272.039 53.8496C272.039 53.8496 271.867 53.2369 271.867 53.1388C271.867 53.0653 271.842 51.8643 271.842 51.8643L272.014 51.6437L271.941 50.9819L271.916 50.2466L272.26 49.5603C272.26 49.5603 275.377 50.0015 276.629 49.2172H277.317H277.439L278.47 50.3692L279.109 51.8398ZM275.475 61.8646H274.052V60.9577H274.764H275.475V61.8646ZM274.297 56.5948C274.444 55.9576 274.764 55.4918 275.156 55.4918C275.549 55.4918 275.868 55.933 276.016 56.5948H274.297ZM274.518 58.9233C274.518 58.7763 274.641 58.6537 274.788 58.6537C274.935 58.6537 275.058 58.7763 275.058 58.9233C275.058 59.0704 274.935 59.1929 274.788 59.1929C274.641 59.1929 274.518 59.0704 274.518 58.9233ZM274.69 59.5116V60.7616H274.297V59.438L274.444 59.1929L274.69 59.5116ZM275.107 59.1929L275.255 59.438V60.7616H274.862V59.5116L275.107 59.1929ZM274.052 59.0459V57.6488H275.475V58.9723C275.402 58.7272 275.23 58.4331 274.764 58.3596C274.273 58.4576 274.101 58.8008 274.052 59.0459ZM276.482 58.9233C276.482 58.7763 276.605 58.6537 276.752 58.6537C276.899 58.6537 277.022 58.7763 277.022 58.9233C277.022 59.0704 276.899 59.1929 276.752 59.1929C276.605 59.1929 276.482 59.0704 276.482 58.9233ZM276.629 59.5116V60.7616H276.236V59.438L276.384 59.1929L276.629 59.5116ZM277.047 59.1929L277.194 59.438V60.7616H276.801V59.5116L277.047 59.1929ZM277.415 60.9577V61.8646H275.991V60.9577H276.703H277.415ZM275.991 59.0459V57.6488H277.415V58.9723C277.341 58.7272 277.169 58.4331 276.703 58.3596C276.212 58.4576 276.04 58.8008 275.991 59.0459ZM278.421 58.9233C278.421 58.7763 278.544 58.6537 278.691 58.6537C278.839 58.6537 278.961 58.7763 278.961 58.9233C278.961 59.0704 278.839 59.1929 278.691 59.1929C278.544 59.1929 278.421 59.0704 278.421 58.9233ZM278.593 59.5116V60.7616H278.2V59.438L278.348 59.1929L278.593 59.5116ZM279.01 59.1929L279.158 59.438V60.7616H278.765V59.5116L279.01 59.1929ZM279.379 60.9577V61.8646H277.955V60.9577H278.667H279.379ZM277.955 59.0459V57.6488H279.379V58.9723C279.305 58.7272 279.133 58.4331 278.667 58.3596C278.176 58.4576 278.004 58.8008 277.955 59.0459ZM277.636 56.5948C277.783 55.9576 278.102 55.4918 278.495 55.4918C278.888 55.4918 279.207 55.933 279.354 56.5948H277.636ZM280.508 51.7908L279.28 54.0457L279.231 54.3644H278.716L278.691 54.1683C278.691 54.1683 279.133 53.531 279.059 53.1143L279.919 51.6192L279.894 50.8839L280.508 51.7908ZM280.385 58.9233C280.385 58.7763 280.508 58.6537 280.655 58.6537C280.802 58.6537 280.925 58.7763 280.925 58.9233C280.925 59.0704 280.802 59.1929 280.655 59.1929C280.508 59.1929 280.385 59.0704 280.385 58.9233ZM280.532 59.5116V60.7616H280.14V59.438L280.287 59.1929L280.532 59.5116ZM280.95 59.1929L281.097 59.438V60.7616H280.704V59.5116L280.95 59.1929ZM281.318 60.9577V61.8646H279.894V60.9577H280.606H281.318ZM279.894 59.0459V57.6488H281.318V58.9723C281.244 58.7272 281.072 58.4331 280.606 58.3351C280.115 58.4576 279.943 58.8008 279.894 59.0459ZM281.293 49.7809C281.293 49.7809 281.269 50.2711 281.146 50.7123L280.778 49.0701L280.925 48.5554L280.999 48.6779C281.146 48.8985 281.342 49.2662 281.293 49.7809ZM281.612 54.3889H280.532L280.508 54.2908C280.508 54.2908 280.68 53.9232 280.729 53.5555C280.851 53.8987 281.121 54.2173 281.612 54.3889ZM282.717 56.5948H280.999C281.146 55.9576 281.465 55.4918 281.858 55.4918C282.251 55.4918 282.57 55.933 282.717 56.5948ZM283.282 58.9723C283.208 58.7272 283.036 58.4331 282.57 58.3351C282.079 58.4331 281.907 58.7763 281.858 59.0214V57.6243H283.282V58.9723ZM282.594 59.1929C282.447 59.1929 282.324 59.0704 282.324 58.9233C282.324 58.7763 282.447 58.6537 282.594 58.6537C282.742 58.6537 282.864 58.7763 282.864 58.9233C282.864 59.0704 282.742 59.1929 282.594 59.1929ZM282.889 59.1929L283.036 59.438V60.7616H282.643V59.5116L282.889 59.1929ZM282.496 60.7616H282.103V59.438L282.251 59.1929L282.496 59.5116V60.7616ZM283.282 61.8646H281.858V60.9577H282.57H283.282V61.8646ZM284.288 58.9233C284.288 58.7763 284.411 58.6537 284.558 58.6537C284.705 58.6537 284.828 58.7763 284.828 58.9233C284.828 59.0704 284.705 59.1929 284.558 59.1929C284.386 59.1929 284.288 59.0704 284.288 58.9233ZM284.435 59.5116V60.7616H284.043V59.438L284.19 59.1929L284.435 59.5116ZM284.853 59.1929L285 59.438V60.7616H284.607V59.5116L284.853 59.1929ZM285.221 60.9577V61.8646H283.797V60.9577H284.509H285.221ZM283.797 59.0459V57.6488H285.221V58.9969C285.147 58.7518 284.975 58.4576 284.509 58.3596C284.018 58.4576 283.846 58.8008 283.797 59.0459ZM286.08 56.5948H284.362C284.509 55.9576 284.828 55.4918 285.221 55.4918C285.589 55.4918 285.933 55.933 286.08 56.5948ZM287.185 58.9969C287.111 58.7518 286.939 58.4576 286.473 58.3596C285.982 58.4576 285.81 58.8008 285.761 59.0459V57.6488H287.185V58.9969ZM286.497 59.1929C286.35 59.1929 286.227 59.0704 286.227 58.9233C286.227 58.7763 286.35 58.6537 286.497 58.6537C286.645 58.6537 286.767 58.7763 286.767 58.9233C286.767 59.0704 286.645 59.1929 286.497 59.1929ZM286.792 59.1929L286.939 59.438V60.7616H286.547V59.5116L286.792 59.1929ZM286.399 60.7616H286.006V59.438L286.154 59.1929L286.399 59.5116V60.7616ZM287.185 61.8646H285.761V60.9577H286.473H287.185V61.8646ZM289.124 58.9969C289.05 58.7518 288.879 58.4576 288.412 58.3596C287.921 58.4576 287.749 58.8008 287.7 59.0459V57.6488H289.124V58.9969ZM288.437 59.1929C288.289 59.1929 288.167 59.0704 288.167 58.9233C288.167 58.7763 288.289 58.6537 288.437 58.6537C288.584 58.6537 288.707 58.7763 288.707 58.9233C288.707 59.0704 288.584 59.1929 288.437 59.1929ZM288.756 59.1929L288.903 59.438V60.7616H288.51V59.5116L288.756 59.1929ZM288.339 60.7616H287.946V59.438L288.093 59.1929L288.339 59.5116V60.7616ZM289.124 61.8646H287.7V60.9577H288.412H289.124V61.8646Z" fill="#0B55A0"/>
<path d="M493.926 122.798V119.219H476.105H405.162V104.488H377.275V83.1642H367.677H292.929V96.0813H260.231V104.17H260.01V113.876H117.78V122.798H-95V164H494V122.798H493.926Z" fill="#0B55A0"/>
<path d="M257.85 109.366H256.034V98.5324C256.034 98.3853 256.009 98.2382 255.96 98.1157C256.009 97.9931 256.034 97.8461 256.034 97.699V97.0617H256.402C257.089 97.0617 257.629 96.5225 257.629 95.8362V94.8313C257.629 94.5616 257.556 94.3165 257.408 94.1205C257.556 93.9244 257.629 93.6793 257.629 93.4097V92.3802C257.629 91.7674 257.187 91.2772 256.623 91.1792V90.4194C256.623 89.7331 256.083 89.1938 255.395 89.1938H255.052V89.0223C255.052 88.4585 254.659 87.9928 254.143 87.8458C253.702 86.8898 252.597 85.5908 250.633 85.3212C250.216 85.0271 249.798 84.5859 249.774 84.4143C249.774 83.728 249.234 83.1888 248.547 83.1888H244.423C243.735 83.1888 243.195 83.728 243.195 84.4143C243.171 84.6104 242.753 85.0271 242.336 85.3457C240.397 85.6153 239.292 86.9144 238.826 87.8703C238.31 88.0173 237.917 88.483 237.917 89.0468V89.2184H237.795C237.475 89.2184 237.205 89.3409 236.985 89.5125H209.614V88.1889C209.614 87.5026 209.074 86.9634 208.386 86.9634H199.107V85.9339C199.107 85.2476 198.567 84.7084 197.88 84.7084H196.505C196.186 83.9731 195.106 82.0368 192.332 81.7917C191.988 81.7426 190.884 81.3995 190.908 80.9583C190.908 80.9338 190.908 80.9093 190.908 80.8848V79.9534C190.908 79.2671 190.368 78.7278 189.681 78.7278H185.925C185.238 78.7278 184.698 79.2671 184.698 79.9534V80.8848C184.698 80.9093 184.698 80.9338 184.698 80.9583C184.722 81.424 183.691 81.7426 183.274 81.7917C180.5 82.0123 179.42 83.9731 179.101 84.7084H177.726C177.039 84.7084 176.499 85.2476 176.499 85.9339V86.9634H167.22C166.532 86.9634 165.992 87.5026 165.992 88.1889V89.5125H138.646C138.425 89.3164 138.155 89.2184 137.836 89.2184H137.713V89.0468C137.713 88.483 137.32 88.0173 136.805 87.8703C136.363 86.9144 135.258 85.6153 133.295 85.3457C132.877 85.0516 132.46 84.6104 132.435 84.4388C132.435 83.7525 131.895 83.2133 131.208 83.2133H127.084C126.397 83.2133 125.857 83.7525 125.857 84.4388C125.832 84.6349 125.415 85.0516 124.997 85.3702C123.058 85.6398 121.954 86.9389 121.487 87.8948C120.972 88.0418 120.579 88.5075 120.579 89.0713V89.2429H120.235C119.548 89.2429 119.008 89.7821 119.008 90.4684V91.2282C118.419 91.3263 118.001 91.841 118.001 92.4292V93.4587C118.001 93.7283 118.075 93.9734 118.222 94.1695C118.075 94.3656 118.001 94.6107 118.001 94.8803V95.8852C118.001 96.5715 118.541 97.1107 119.229 97.1107H119.597V97.748C119.597 97.8951 119.621 98.0421 119.671 98.1647C119.621 98.2872 119.597 98.4343 119.597 98.5814V109.415H117.78C117.093 109.415 116.553 109.954 116.553 110.641V113.68H259.078V110.641C259.078 109.93 258.513 109.366 257.85 109.366Z" fill="#0B447E"/>
<path d="M185.655 106.498H187.594H188.012H189.951L189.313 104.832H188.429C188.429 104.832 188.478 104.243 188.012 103.631V103.189C187.938 103.263 187.864 103.336 187.815 103.385C187.742 103.312 187.692 103.238 187.619 103.189V103.631C187.152 104.268 187.202 104.832 187.202 104.832H186.318L185.655 106.498Z" fill="#0B55A0"/>
<path d="M187.594 109.66H188.012H190.245C190.245 109.66 189.755 108.312 188.012 107.993V107.92C187.938 107.92 187.864 107.944 187.815 107.944C187.742 107.944 187.693 107.92 187.619 107.92V107.993C185.901 108.312 185.385 109.66 185.385 109.66H187.594Z" fill="#0B55A0"/>
<path d="M179.96 91.2282H179.15V89.8311H178.217V88.4095H167.219V92.8949H179.96V91.2282ZM169.478 91.939H168.3V90.8361H169.478V91.939ZM169.478 90.4929H168.3V89.3899H169.478V90.4929ZM171.073 91.939H169.895V90.8361H171.073V91.939ZM171.073 90.4929H169.895V89.3899H171.073V90.4929ZM172.669 91.939H171.491V90.8361H172.669V91.939ZM172.669 90.4929H171.491V89.3899H172.669V90.4929ZM174.265 91.939H173.086V90.8361H174.265V91.939ZM174.265 90.4929H173.086V89.3899H174.265V90.4929ZM175.885 91.939H174.707V90.8361H175.885V91.939ZM175.885 90.4929H174.707V89.3899H175.885V90.4929ZM177.48 91.939H176.302V90.8361H177.48V91.939ZM177.48 90.4929H176.302V89.3899H177.48V90.4929Z" fill="#0B55A0"/>
<path d="M180.132 93.3852H167.219V94.194H180.132V93.3852Z" fill="#0B55A0"/>
<path d="M167.219 95.8607H168.471V97.9441H168.815V98.7775H168.471V109.587H169.895V98.7775H169.576V97.9441H169.699H169.895V95.8607H172.497V97.9441H172.841V98.7775H172.497V109.587H173.921V98.7775H173.626V97.9441H173.725H173.921V95.8607H176.523V97.9441H176.891V98.7775H176.523V109.587H177.947V98.7775H177.652V97.9441H177.75H177.947V95.8607H180.156V95.0764H167.219V95.8607Z" fill="#0B55A0"/>
<path d="M166.729 93.8509H138.155V94.8068H166.729V93.8509Z" fill="#0B55A0"/>
<path d="M135.774 88.8262C135.774 88.8262 135.136 86.8898 132.853 86.7183C132.853 86.7183 131.183 85.7134 131.183 84.6104H129.121H127.059C127.059 85.7134 125.39 86.7183 125.39 86.7183C123.107 86.8898 122.469 88.8262 122.469 88.8262H129.121H135.774Z" fill="#0B55A0"/>
<path d="M157.229 109.096H159.561V108.288V98.7775H159.904V97.9441H159.561V96.0813H157.229V97.9441H157.032H156.934V98.7775H157.229V108.288V109.096Z" fill="#0B55A0"/>
<path d="M160.984 109.096H163.316V108.288V98.7775H163.66V97.9441H163.316V96.0813H160.984V97.9441H160.788H160.665V98.7775H160.984V108.288V109.096Z" fill="#0B55A0"/>
<path d="M164.74 109.096H167.22V96.0813H164.74V97.9441H164.519H164.421V98.7775H164.74V108.288V109.096Z" fill="#0B55A0"/>
<path d="M153.473 109.096H155.805V108.288V98.7775H156.148V97.9441H155.805V96.0813H153.473V97.9441H153.276H153.178V98.7775H153.473V108.288V109.096Z" fill="#0B55A0"/>
<path d="M140.806 110.297V109.587V108.288V98.7775H141.15V97.9441H140.806V96.0813H138.155V110.297H140.806Z" fill="#0B55A0"/>
<path d="M142.23 109.562L142.966 109.096H144.562V108.288V98.7775H144.906V97.9441H144.562V96.0813H142.23V97.9441H142.033H141.911V98.7775H142.23V108.288V109.562Z" fill="#0B55A0"/>
<path d="M145.986 109.096H148.318V108.288V98.7775H148.661V97.9441H148.318V96.0813H145.986V97.9441H145.765H145.667V98.7775H145.986V108.288V109.096Z" fill="#0B55A0"/>
<path d="M149.741 109.096H152.049V108.288V98.7775H152.417V97.9441H152.049V96.0813H149.741V97.9441H149.521H149.422V98.7775H149.741V108.288V109.096Z" fill="#0B55A0"/>
<path d="M178.683 110.837V109.66H176.106V112.626H174.584V109.66H171.663V112.626H170.705V109.66H143.114L141.248 110.837H117.78V113.876H179.223L177.947 112.626L178.683 110.837Z" fill="#0B55A0"/>
<path d="M130.03 107.675H129.49C129.49 107.675 129.514 107.332 129.22 106.939V106.67C129.17 106.719 129.146 106.768 129.097 106.817C129.048 106.768 129.023 106.719 128.974 106.67V106.939C128.68 107.332 128.704 107.675 128.704 107.675H128.164L127.771 108.68H128.95H129.195H130.373L130.03 107.675Z" fill="#0B55A0"/>
<path d="M131.772 110.297V104.611C131.772 104.611 131.944 102.16 129.146 101.743V101.719C129.121 101.719 129.121 101.719 129.097 101.719C129.072 101.719 129.072 101.719 129.048 101.719V101.743C126.249 102.135 126.421 104.611 126.421 104.611V110.297H127.035V109.072C127.084 106.596 128.606 106.792 128.606 106.792C128.679 106.474 128.999 106.18 129.072 106.106C129.17 106.18 129.465 106.498 129.539 106.792C129.539 106.792 131.061 106.596 131.11 109.072V110.273H131.772V110.297Z" fill="#0B55A0"/>
<path d="M129.121 109.587C129.072 109.587 129.048 109.562 128.999 109.562V109.611C128.385 109.709 128.017 110.052 127.82 110.297H130.398C130.201 110.052 129.858 109.709 129.22 109.611V109.562C129.195 109.562 129.17 109.562 129.121 109.587Z" fill="#0B55A0"/>
<path d="M120.8 97.9441H121.143V98.7775H120.8V108.288V109.587V110.273H122.223V109.587V108.288V98.7775H121.904V97.9441H122.002H122.199V96.0813H124.654V97.9441H124.997V98.7775H124.703V108.288V109.587V110.273H126.126V109.587V108.288V98.7775H125.807V97.9441H125.906H126.102V96.0813H132.141V97.9441H132.484V98.7775H132.141V108.288V109.587V110.273H133.564V109.587V108.288V98.7775H133.245V97.9441H133.343H133.54V96.0813H135.995V97.9441H136.338V98.7775H135.995V108.288V109.587V110.273H137.418V109.587V108.288V98.7775H137.099V97.9441H137.198H137.394V96.0813H138.081V95.5911H166.655V95.1009H138.155V95.0764H137.271V93.6303H138.155V93.1401H166.728V90.9586H138.155V92.6253H137.836V90.6645H136.486V89.2674H121.806V90.6645H120.235V92.6253H119.229V93.6303H121.045V95.0519H119.229V96.0568H120.824V97.9441H120.8ZM133.368 93.6303H136.24V95.0519H133.368V93.6303ZM125.906 93.6303H132.362V95.0519H125.906V93.6303ZM122.027 93.6303H124.899V95.0519H122.027V93.6303Z" fill="#0B55A0"/>
<path d="M187.889 85.5418H195.425C195.425 85.5418 194.787 83.4094 192.185 83.2378C192.185 83.2378 189.583 82.8701 189.681 81.1054V80.174H187.864H187.717H185.9V81.1054C185.999 82.8701 183.397 83.2378 183.397 83.2378C180.794 83.4339 180.156 85.5418 180.156 85.5418H187.692H187.889Z" fill="#0B55A0"/>
<path d="M187.889 87.3556H197.88V86.1545H187.889H187.742H177.726V87.3556H187.742H187.889Z" fill="#0B55A0"/>
<path d="M195.057 93.5077V90.4194H195.621V89.6351H194.198V88.9488H196.603V87.9438H187.889H187.742H179.027V88.9488H181.433V89.6351H180.009V90.4194H180.574V93.5077H181.212V94.0224H180.647V96.6941H181.212V98.802H180.647V109.66H182.807V98.802H182.194V96.6941H182.807V94.0224H182.194V93.5077H182.807V92.8214H187.742H187.889H192.823V93.5077H193.437V94.0224H192.823V96.6941H193.437V98.802H192.823V109.66H194.983V98.802H194.419V96.6941H194.983V94.0224H194.419V93.5077H195.057ZM192.798 91.2773H187.864H187.717H182.783V90.3949H187.717H187.864H192.798V91.2773ZM193.289 89.6105H187.864H187.717H182.292V88.9242H187.717H187.864H193.289V89.6105Z" fill="#0B55A0"/>
<path d="M192.774 110.494H188.012H187.594H182.832V110.101H180.426V116.008H182.832V115.886H187.594H188.012H192.774V116.008H195.18V110.101H192.774V110.494ZM192.774 114.783H188.012H187.594H182.832V114.048H187.594H188.012H192.774V114.783ZM192.774 113.361H188.012H187.594H182.832V112.65H187.594H188.012H192.774V113.361ZM192.774 111.915H188.012H187.594H182.832V111.204H187.594H188.012H192.774V111.915Z" fill="#0B55A0"/>
<path d="M192.16 109.66V99.7824C192.16 99.7824 192.455 95.7627 187.889 95.1009V95.0764C187.864 95.0764 187.84 95.0764 187.815 95.1009C187.791 95.1009 187.766 95.1009 187.741 95.0764V95.1009C183.176 95.7627 183.47 99.7824 183.47 99.7824V109.66H184.477V107.136C184.575 103.091 187.079 103.385 187.079 103.385C187.201 102.895 187.668 102.405 187.84 102.258C188.011 102.43 188.502 102.895 188.601 103.385C188.601 103.385 191.105 103.067 191.203 107.136V109.66H192.16Z" fill="#0B55A0"/>
<path d="M197.389 89.8311H196.456V91.2282H195.646V92.8949H208.386V88.434H197.389V89.8311ZM206.128 89.3654H207.306V90.4684H206.128V89.3654ZM206.128 90.8361H207.306V91.939H206.128V90.8361ZM204.532 89.3654H205.711V90.4684H204.532V89.3654ZM204.532 90.8361H205.711V91.939H204.532V90.8361ZM202.937 89.3654H204.115V90.4684H202.937V89.3654ZM202.937 90.8361H204.115V91.939H202.937V90.8361ZM201.341 89.3654H202.519V90.4684H201.341V89.3654ZM201.341 90.8361H202.519V91.939H201.341V90.8361ZM199.745 89.3654H200.924V90.4684H199.745V89.3654ZM199.745 90.8361H200.924V91.939H199.745V90.8361ZM198.15 89.3654H199.328V90.4684H198.15V89.3654ZM198.15 90.8361H199.328V91.939H198.15V90.8361Z" fill="#0B55A0"/>
<path d="M208.386 93.3852H195.474V94.194H208.386V93.3852Z" fill="#0B55A0"/>
<path d="M197.659 97.9441H197.855H197.978V98.7775H197.659V109.587H199.083V98.7775H198.739V97.9441H199.083V95.8607H201.685V97.9441H201.906H202.004V98.7775H201.685V109.587H203.109V98.7775H202.765V97.9441H203.109V95.8607H205.711V97.9441H205.932H206.03V98.7775H205.711V109.587H207.134V98.7775H206.791V97.9441H207.134V95.8607H208.386V95.0764H195.474V95.8607H197.659V97.9441Z" fill="#0B55A0"/>
<path d="M237.475 93.8509H208.902V94.8068H237.475V93.8509Z" fill="#0B55A0"/>
<path d="M253.112 88.8262C253.112 88.8262 252.474 86.8898 250.191 86.7183C250.191 86.7183 248.522 85.7134 248.522 84.6104H246.46H244.398C244.398 85.7134 242.729 86.7183 242.729 86.7183C240.446 86.8898 239.807 88.8262 239.807 88.8262H246.46H253.112Z" fill="#0B55A0"/>
<path d="M216.045 109.096H218.377V108.288V98.7775H218.696V97.9441H218.598H218.377V96.0813H216.045V97.9441H215.701V98.7775H216.045V108.288V109.096Z" fill="#0B55A0"/>
<path d="M212.314 109.096H214.622V108.288V98.7775H214.941V97.9441H214.842H214.622V96.0813H212.314V97.9441H211.946V98.7775H212.314V108.288V109.096Z" fill="#0B55A0"/>
<path d="M208.386 109.096H210.89V108.288V98.7775H211.185V97.9441H211.086H210.89V96.0813H208.386V109.096Z" fill="#0B55A0"/>
<path d="M219.801 109.096H222.133V108.288V98.7775H222.452V97.9441H222.329H222.133V96.0813H219.801V97.9441H219.457V98.7775H219.801V108.288V109.096Z" fill="#0B55A0"/>
<path d="M234.8 97.9441H234.456V98.7775H234.8V108.288V109.587V110.297H237.475V96.0813H234.8V97.9441Z" fill="#0B55A0"/>
<path d="M231.044 109.096H232.664L233.376 109.562V108.288V98.7775H233.695V97.9441H233.597H233.376V96.0813H231.044V97.9441H230.7V98.7775H231.044V108.288V109.096Z" fill="#0B55A0"/>
<path d="M227.312 109.096H229.62V108.288V98.7775H229.939V97.9441H229.841H229.62V96.0813H227.312V97.9441H226.969V98.7775H227.312V108.288V109.096Z" fill="#0B55A0"/>
<path d="M223.557 109.096H225.889V108.288V98.7775H226.184V97.9441H226.085H225.889V96.0813H223.557V97.9441H223.213V98.7775H223.557V108.288V109.096Z" fill="#0B55A0"/>
<path d="M234.358 110.837L232.492 109.66H204.925V112.626H203.943V109.66H201.022V112.626H199.5V109.66H196.922V110.837L197.659 112.626L196.407 113.876H257.85V110.837H234.358Z" fill="#0B55A0"/>
<path d="M247.417 107.675H246.877C246.877 107.675 246.902 107.332 246.607 106.939V106.67C246.558 106.719 246.534 106.768 246.485 106.817C246.435 106.768 246.411 106.719 246.362 106.67V106.939C246.067 107.332 246.092 107.675 246.092 107.675H245.552L245.159 108.68H246.337H246.583H247.761L247.417 107.675Z" fill="#0B55A0"/>
<path d="M249.16 110.297V104.611C249.16 104.611 249.332 102.16 246.534 101.743V101.719C246.509 101.719 246.509 101.719 246.484 101.719C246.46 101.719 246.46 101.719 246.435 101.719V101.743C243.637 102.135 243.809 104.611 243.809 104.611V110.297H244.422V109.072C244.471 106.596 245.993 106.792 245.993 106.792C246.067 106.474 246.386 106.18 246.46 106.106C246.558 106.18 246.853 106.498 246.926 106.792C246.926 106.792 248.448 106.596 248.497 109.072V110.273H249.16V110.297Z" fill="#0B55A0"/>
<path d="M246.484 109.587C246.435 109.587 246.411 109.562 246.362 109.562V109.611C245.748 109.709 245.38 110.052 245.183 110.297H247.761C247.565 110.052 247.221 109.709 246.583 109.611V109.562C246.583 109.562 246.533 109.562 246.484 109.587Z" fill="#0B55A0"/>
<path d="M237.476 96.0813H238.163V97.9441H238.359H238.457V98.7775H238.138V108.288V109.587V110.273H239.562V109.587V108.288V98.7775H239.218V97.9441H239.562V96.0813H242.017V97.9441H242.213H242.311V98.7775H241.992V108.288V109.587V110.273H243.416V109.587V108.288V98.7775H243.072V97.9441H243.416V96.0813H249.455V97.9441H249.651H249.749V98.7775H249.43V108.288V109.587V110.273H250.854V109.587V108.288V98.7775H250.51V97.9441H250.854V96.0813H253.309V97.9441H253.505H253.603V98.7775H253.284V108.288V109.587V110.273H254.708V109.587V108.288V98.7775H254.364V97.9441H254.708V96.0813H256.304V95.0764H254.487V93.6303H256.304V92.6253H255.297V90.6645H253.726V89.2674H239.047V90.6645H237.696V92.6253H237.377V90.9586H208.902V93.1401H237.476V93.6548H238.359V95.0764H237.476V95.1009H208.902V95.5666H237.476V96.0813ZM250.707 93.6303H253.579V95.0519H250.707V93.6303ZM243.269 93.6303H249.725V95.0519H243.269V93.6303ZM239.366 93.6303H242.238V95.0519H239.366V93.6303Z" fill="#0B55A0"/>
<path d="M268.283 128.019L268.725 127.92L268.234 127.504L269.093 127.92C268.43 126.818 264.797 126.229 264.797 126.229C264.134 126.254 262.858 125.494 262.858 125.494C262.097 125.053 261.459 125.273 261.459 125.273C261.311 125.273 260.231 125.347 260.231 125.347C260.894 125.347 261.189 125.715 261.189 125.715C261.459 125.935 261.753 126.278 261.753 126.278C262.121 126.548 262.293 127.038 262.293 127.038C263.152 129.048 265.705 129.269 265.705 129.269C265.705 129.269 265.534 129.71 265.288 130.053C265.067 130.273 264.846 130.421 264.846 130.421L263.962 130.445L263.766 130.764L265.043 131.082L265.337 130.641C265.337 130.641 265.583 131.009 265.583 131.278H265.804L265.902 130.249L266.196 129.587C266.27 129.514 266.344 129.44 266.344 129.44C266.589 129.367 267.375 128.95 267.375 128.95C267.939 129.146 268.725 129.293 268.725 129.293C269.608 130.028 270.959 130.396 270.959 130.396C270.885 129.857 268.283 128.019 268.283 128.019Z" fill="#0B447E"/>
</g>
<defs>
<clipPath id="clip0_61_4">
<rect width="589" height="164" fill="white" transform="translate(-95)"/>
</clipPath>
</defs>
</svg>
